<svg id="Layer_1" data-name="Layer 1" xmlns="http://www.w3.org/2000/svg" viewBox="0 0 681.61 533.78"><path d="M624.5,118.12V53.71H550.42L521.05,27.3l-5.86-28H499.88l7.5,35.91,67.38,60.6c-4.06,2.26-10.19,3.92-18,.9-17.74-6.86-24.33-13-24.33-13L515.61,66.84l4.12,23.41c10.39,59,21.1,125.45,21.1,135.85-.36.48-1,1-1.31,1-2-.19-8.81-6.76-14.34-33.49L501,114.69l-5.92-36.06-12.17,2,6.86,41.7-.42,1.58c-2.7,10.12-8.52,19.24-10.86,18.64-6.23-1.55-8.2-7.9-8.71-10.11l-.29-1.79L468.05,120l-.29.18-3.41-21-12.17,2,4.24,26.19c-2.66,1.33-7.21,3-10.41,1.72-3-1.19-4.7-5.36-5.56-8.65l-3.57-13.56,0,0-2.09-12.55-12.16,2,3.72,22.29c-3.41,3.36-8.12,6.4-10.34,6-1-.2-2.35-2.13-3.37-4.92C408,107,396.92,48.87,388-.74H372.81c4,22.45,9.06,50,13.79,73.82-11.39,8.35-21.55,19.34-30.26,32.85a172,172,0,0,0-16,31.93,171.29,171.29,0,0,0-15.95-31.93l-.33-.49c-1.11-1.71-2.24-3.37-3.4-5C299,69.84,269.13,53.71,234.06,53.71H56.27v64.41H34.44V444H210.28a86.1,86.1,0,0,1,30.53,11c19.72,11.92,29.72,30.25,29.72,54.49v5.38H413.42v-5.38c0-24.24,10-42.57,29.72-54.49a86.16,86.16,0,0,1,30.54-11H649.51V118.12Zm-87.08-13.63a150.53,150.53,0,0,0,13.92,6.16,35.82,35.82,0,0,0,40.72-10l4.38-5.53L564.12,66h48V226.3L585.8,212.37v-.61h-1.14l-32.54-17.19c-.15-1.07-.32-2.18-.49-3.33h36.68V178.92H549.75c-1.1-7-2.37-15-3.86-24.13C542.82,136,539.64,117.35,537.42,104.49ZM68.6,371.62h190a123.19,123.19,0,0,1,38.24,15.48c24.81,15.6,37.39,37.61,37.39,65.43V484H306.16c-1.66-25.38-13.7-46.61-35.06-61.67a105.83,105.83,0,0,0-34.89-16.05l-.65-.14H68.6Zm278,80.91c0-27.82,12.58-49.83,37.38-65.43a123.13,123.13,0,0,1,38.25-15.48h190v34.56h-167l-.65.14a105.83,105.83,0,0,0-34.89,16.05c-21.36,15.06-33.4,36.29-35.06,61.67H346.55Zm265.62-93.24H477.28L499.81,341h86V328.63H515l25.74-20.95H585.8V295.35h-30l56.34-45.86ZM538.65,242c.3,0,.6,0,.91,0,7.71,0,13.81-5.83,15.71-11.56.55-1.64,1.18-3.53-1-20.88l53,28L466.72,352l53.56-125C525.32,236.65,531.41,241.6,538.65,242Zm-192.1-82.67a161.64,161.64,0,0,1,20.35-47.05,114,114,0,0,1,22.41-25.82c3.71,18,7,32.31,9.23,38.31,3.83,10.42,10.12,13.63,14.71,14.49,6.39,1.19,12.51-1.52,17.2-4.72A21.53,21.53,0,0,0,440.66,143c6,2.32,12.22,1.46,17-.07a26.06,26.06,0,0,0,17.17,14.19c9.4,2.35,16.21-4,20.41-10L505,178.92H414.18v12.32h94.63l1.76,5.72q1.55,7.42,3.35,13.6l-.51,1.2h-131v12.33H508.12l-8.79,20.53H401.62v12.32h92.43l-8.8,20.53H390.73v12.32H480l-8.8,20.53H382.36v12.32h83.53l-15.71,36.65H421.06l-.53.09a132.86,132.86,0,0,0-42.8,17.07c-13.45,8.38-23.9,18.68-31.18,30.59ZM68.6,66H234.06c33.07,0,59.92,15.56,79.81,46.27a161.87,161.87,0,0,1,20.35,47.05V407c-7.28-11.91-17.73-22.21-31.18-30.59a132.86,132.86,0,0,0-42.8-17.07l-.53-.09H68.6ZM638.74,433.21H473.34l-.6,0a95.44,95.44,0,0,0-34.82,12.3c-15.25,9.12-33.28,26.58-35.12,58.53H281.15c-1.83-31.95-19.86-49.41-35.12-58.53a95.38,95.38,0,0,0-34.82-12.3l-.3,0H45.21V128.89H56.27V418.5h177.9A95.64,95.64,0,0,1,264,432.45c19.93,14.05,30,33.48,30,57.75v6.16h92.69V490.2c0-24.13,10-43.48,29.71-57.52A96.47,96.47,0,0,1,446.6,418.5H624.5v-179l5-4-5-2.62V128.89h14.24Z"/><path d="M204.12,310.62a86.48,86.48,0,0,0,38.45-9c11,4.86,22.5,9.32,35.07,13.67a65.58,65.58,0,0,0,18.56,2.92c4.36,0,8.55-.61,11.56-2.35,15.3-8.82,12.71-30.38,6-42.88-5-9.29-12.21-16.87-19.16-24.19-1.67-1.76-3.34-3.52-5-5.29-.41-.44-.82-.89-1.24-1.33A85.92,85.92,0,0,0,155,154.45l-1-.14-.13.91c-.87.64-1.73,1.3-2.58,2-17.07-7.11-41.07-14.94-56.58-4.1-11.1,7.76-10.64,22.76-5.52,33.41,3.78,7.84,12.13,21.66,29.24,37.35a85.77,85.77,0,0,0,85.69,86.77ZM258,248.37c-3.58.06-7.2.3-10.69.54-4.2.3-8.18.57-11.63.49-9.81-.23-22.47-15.35-31-27.07-3.12-4.3-5.68-8.14-7.33-10.62-9.46-14.18-17.71-11.24-25-8.64-1.38.49-2.77,1-4.23,1.4a22.8,22.8,0,0,1-11.89.4A25.31,25.31,0,0,1,138,189.74a22.43,22.43,0,0,1-.8-2.18c.58-1.05,1.18-2.1,1.82-3.13a76.65,76.65,0,0,1,18.2-20.25,132.3,132.3,0,0,1,14.1,3.56c7.59,2.38,16,5.89,22,10.85.51.42,1,.85,1.48,1.29,4.51,4.23,7.4,9.06,10.45,14.16,6,10,12.77,21.31,32.78,26.75a232.37,232.37,0,0,0,42.85,7.74,75.26,75.26,0,0,1-4.64,22.8C271,248.84,264.59,248.27,258,248.37ZM131.26,179.6c-1.53,2.46-2.9,5-4.15,7.51-3.62-4.42-5.09-7.25-5.34-8.71,1-.2,3.68-.36,9.49,1.19Zm44.23,32.1a33.68,33.68,0,0,1,4.58-1.41c2.84-.56,4.87.17,7.72,3.77.61.77,1.26,1.68,2,2.74,13.62,20.44,29.71,41.38,45.72,41.76,3.87.1,8.06-.19,12.49-.5,8.87-.61,18.74-1.29,24.53,1.67-.94,1.83-1.94,3.65-3,5.42a76.4,76.4,0,0,1-9.62,12.47c-19.17-7.05-46.37-20.59-79.85-45-9.43-6.88-17.39-13-24.12-18.49C164.39,215.66,170.76,213.39,175.49,211.7ZM277.26,270c.12-.21.23-.41.36-.62,6.86,6,11.74,12,12.52,14.83-2.81.58-9.95-.12-20.82-3.39A85.83,85.83,0,0,0,277.26,270ZM222.07,150.17a77.15,77.15,0,0,1,43.49,28.52l2.05,1.34c-33-2.76-45-22.58-48.92-32.07Zm-35.38,0a77,77,0,0,1,17.71-2.07c1.55,0,3.1,0,4.64.15a58.07,58.07,0,0,0,11.13,19.14c8.48,9.73,24.35,21.3,52.19,22.11a77.47,77.47,0,0,1,8.39,29.83c-1.72-.13-3.86-.34-6.38-.64a240.67,240.67,0,0,1-34-6.73c-16.44-4.47-21.48-12.87-27.31-22.61l-.81-1.35c-3-5-6.25-10.1-11.24-14.79-8.86-8.31-22.68-13.25-33.07-16A76.75,76.75,0,0,1,186.69,150.15ZM97.46,182.53c-2.92-6.07-4.66-16.91,2.5-21.92,1.74-1.22,5.35-3.74,13.45-3.74,6.5,0,15.91,1.63,29.56,6.86l-6.28,7.87c-8.89-2.76-19.57-4.68-23.19,2.29-3,5.68.87,13.58,12.4,25.61,10.52,11,27.36,25,48.69,40.54C234.5,283.7,281.28,297.21,294,292.57a7.47,7.47,0,0,0,5.09-5.2c1.28-5.13-1.73-11.23-9.49-19.21-2.72-2.8-5.49-5.27-7.48-7L286,253l2,2.06c6.54,6.89,13.31,14,17.74,22.23,5,9.33,6.95,25.15-2.49,30.59-3.63,2.09-15.78,1-22.54-1.3a399.53,399.53,0,0,1-74-33.61,750.11,750.11,0,0,1-64.9-42C121.31,216.22,105.16,198.55,97.46,182.53Zm30.89,49.81q3.79,3,8,6.09a762,762,0,0,0,65.69,42.49c10,5.76,19.58,10.85,29.35,15.53a76.78,76.78,0,0,1-17.34,4.35c-5.58-14.86-21.1-22.14-32.93-19.36-2.87.68-3,.71-5.94-5.35A58.42,58.42,0,0,0,165.55,261a18.85,18.85,0,0,0-13.63-6.59c-6.29-.19-12.08,2.74-15.91,5.29a77.34,77.34,0,0,1-8-27.33ZM143.09,271,139,268.89c2.31-1.84,7.52-5.45,12.64-5.29a9.86,9.86,0,0,1,7.16,3.59,48.83,48.83,0,0,1,8.16,12.87c.7,1.45,1.42,2.95,2.25,4.35,2.39,4,5.74,7.21,12.26,6.3.58-.09,1.18-.2,1.8-.34,7.57-1.79,17.53,3.13,21.73,12.42l-2.69-1.38A76.45,76.45,0,0,1,143.09,271Z"/><rect x="150.34" y="113.07" width="12.33" height="23.17" transform="translate(-41.29 94.46) rotate(-29.86)"/><rect x="191.08" y="102.91" width="12.33" height="21.9" transform="translate(-16.48 35.17) rotate(-9.78)"/><rect x="230.12" y="110.12" width="22.49" height="12.33" transform="translate(75.26 326.49) rotate(-77.41)"/><rect x="274.75" y="137.93" width="22.8" height="12.33" transform="translate(-15.26 252.69) rotate(-46.54)"/><rect x="299.2" y="185.36" width="19.72" height="12.33"/><rect x="89.88" y="256.9" width="22.59" height="12.33" transform="translate(-68.01 37.64) rotate(-15.85)"/><rect x="110.21" y="295.35" width="25.07" height="12.33" transform="translate(-165.3 149.82) rotate(-40.08)"/><rect x="151.57" y="318.64" width="23.27" height="12.33" transform="matrix(0.27, -0.96, 0.96, 0.27, -193.75, 393.54)"/><rect x="201.69" y="321.49" width="12.33" height="20.1" transform="translate(-6.1 3.91) rotate(-1.06)"/><rect x="244.48" y="315.51" width="12.33" height="27.04" transform="translate(-104.32 116.69) rotate(-21.81)"/></svg>