<svg id="Layer_1" data-name="Layer 1" xmlns="http://www.w3.org/2000/svg" viewBox="0 0 681.61 533.78"><path d="M304,395.28h13.27v-14h-9a91.66,91.66,0,0,0-59.21-106l42.41-47.52-23.26-20.47-5.3-4.67-9.7-8.54L170,280.36c-2.06,2.14-4.23,4.31-6.32,6.42-7.55,7.57-15.36,15.41-21.43,24.62a91.81,91.81,0,0,0-13.95,36.14,92.77,92.77,0,0,0-1.09,14.15,91.72,91.72,0,0,0,2.12,19.59h-9v14h13.28a91.48,91.48,0,0,0,10.7,19.61L115,497.21l13.2,4.69,26.56-74.76a91.32,91.32,0,0,0,57,25.88v49.19h14V453a91.29,91.29,0,0,0,57-25.83l26.6,77.3,13.23-4.55-29.26-85.06A91.64,91.64,0,0,0,304,395.28ZM137.63,361.69a82.19,82.19,0,0,1,1-12.55,81.15,81.15,0,0,1,12.36-32c5.48-8.33,12.91-15.79,20.1-23,2.12-2.13,4.32-4.34,6.45-6.54l76.28-79.14,22.87,20.13L230,280.87l8.4,2.09a81.14,81.14,0,0,1,59.1,98.32H280.19a63.47,63.47,0,0,0,2.21-16.58v-5.23H155.15v5.23a63.47,63.47,0,0,0,2.21,16.58H140A81.16,81.16,0,0,1,137.63,361.69Zm28.22,8.23H271.69a52.74,52.74,0,0,1-2.4,11.36h-101A52.76,52.76,0,0,1,165.85,369.92Zm59.92,25.36h36.47a53.21,53.21,0,0,1-36.47,22.12Zm-77.1,7.2a79,79,0,0,1-3.73-7.2h6.29Zm63.1,40a81,81,0,0,1-53.1-26.36l6.26-17.62a63.68,63.68,0,0,0,46.84,29.4Zm0-25.11a53.23,53.23,0,0,1-36.47-22.12h36.47Zm14,25.11V427.93a63.69,63.69,0,0,0,47-29.65l6.13,17.83A81,81,0,0,1,225.77,442.51Zm60.78-47.23h6.06c-1.1,2.41-2.32,4.76-3.64,7Z"/><path d="M550.51,419.6c-37.84-14.6-35.34-49.33-35.21-50.79l0-.23V246.43c0-47.85-27.82-64.54-33.66-67.52L502,158.56l.93-.93,8.26-27.17,34.47-30,10.63,11.36,7.63-7.14L510.45,47.53l-7.63,7.14L513.39,66l-33,33-26.15,8.37h0l-1.21.39-.89.89h0L328.56,232.2h0l-3.7,3.69,11.22,11.22L320.56,264,347,288.56l15.27-15.27,12.51,12.51,3.69-3.69h0l35-35a46.23,46.23,0,0,0,24.33,9.65V375H348.19v17h89.58v44.91H376.89c-19.11,0-27.71,18-30,29.23H334.73v41.09H607.14V466.09H590.42C583,442.89,569.21,426.82,550.51,419.6ZM504.87,246.43V368.14a61.75,61.75,0,0,0,3.76,23.94c4.35,12,14.49,28.15,38.12,37.27,17.7,6.83,27.34,22.17,32.58,36.74h-104A29.46,29.46,0,0,0,480,449.61V400.08a17.43,17.43,0,0,0,0-33.26v-46c0-21.42-14.42-29.26-22.05-30.41l-.39-.06h-9.31V256.53a46.37,46.37,0,0,0,37.24-62.18C493.8,202,504.87,217.66,504.87,246.43Zm-30.11,130a7,7,0,1,1-7,7A7,7,0,0,1,474.76,376.47Zm43.45,120.26H492.6l-8.69-20.19H524Zm-111.82-281h15.14a21.49,21.49,0,0,0,2.2,5.43L413,231.89A35.77,35.77,0,0,1,406.39,215.78Zm41.08,15.49a21.28,21.28,0,0,0,6.11-2.61L463.93,239a36,36,0,0,1-16.46,7.09Zm23.72.22-10.37-10.37a20.73,20.73,0,0,0,2.14-5.34h14.59A35.86,35.86,0,0,1,471.19,231.49ZM463,205.33a21.31,21.31,0,0,0-2.47-5.89l10.33-10.33a35.71,35.71,0,0,1,6.73,16.22ZM453,192.11a21.27,21.27,0,0,0-5.57-2.28V175a35.8,35.8,0,0,1,16,6.7Zm-16-2.28a21.45,21.45,0,0,0-6,2.57l-10.6-10.6A35.86,35.86,0,0,1,437,174.93Zm-24-.6,10.69,10.68a21,21,0,0,0-2.19,5.42H406.39A35.72,35.72,0,0,1,413,189.23Zm18.28,21.32a10.94,10.94,0,1,1,10.94,10.94A10.95,10.95,0,0,1,431.31,210.55Zm50.38-101,19,19.4-5.61,18.47-31.95-31.95ZM374.77,271,339.64,235.9l8.15-8.15,35.41,34.84Zm12.67-12.68L352,223.5l6.44-6.44,35.41,34.85Zm10.69-10.69-35.41-34.84,94.66-94.66,35.12,35.13-21.27,21.27A46.38,46.38,0,0,0,406,239.82ZM431,228.71a21.31,21.31,0,0,0,6,2.56v14.9a35.92,35.92,0,0,1-16.62-6.86Zm17.22,72.1h8.41a16.21,16.21,0,0,1,6.07,3c4.53,3.58,6.82,9.3,6.82,17v46a17.52,17.52,0,0,0-10,8.12H448.22ZM360.89,458c3.92-7.22,9.15-10.73,16-10.73h71.33V392h11.34a17.52,17.52,0,0,0,10,8.12v50c0,.07.31,7.1-4,11.72-2.7,2.87-6.86,4.33-12.35,4.33H357.67A39.12,39.12,0,0,1,360.89,458Zm46.31,18.51h33.67l-6.29,20.19H412.36Zm-62,0h22.53l-3.79,20.19H345.18Zm29.37,20.19,3.8-20.19h18.06l5.16,20.19Zm71,0,6.29-20.19h20.72l8.69,20.19Zm83.56,0,5.79-20.19h23.84l6.92,20.19Zm67.61-20.19v20.19h-20l-6.91-20.19Z"/><path d="M279.23,85.08l12.7,48.18a25.08,25.08,0,1,0,33.18,11.39l38.29-38a25.07,25.07,0,1,0-8.56-32.45L305.39,60.75c0-.23,0-.47,0-.71a25.07,25.07,0,1,0-26.17,25Zm23.48,85.44a14.62,14.62,0,1,1,14.62-14.62A14.64,14.64,0,0,1,302.71,170.52Zm74.41-99.45A14.63,14.63,0,1,1,362.49,85.7,14.64,14.64,0,0,1,377.12,71.07Zm-74.2-.16L352.09,84.3c0,.46,0,.93,0,1.4a24.94,24.94,0,0,0,4,13.55l-37.52,37.21a24.92,24.92,0,0,0-15.81-5.63h-.61l-12.53-47.5A25.2,25.2,0,0,0,302.92,70.91ZM280.33,45.42A14.62,14.62,0,1,1,265.71,60,14.64,14.64,0,0,1,280.33,45.42Z"/><polygon points="144.47 169.84 153.66 179.04 181.87 150.83 181.87 190.72 194.87 190.72 194.87 150.83 223.08 179.04 232.27 169.84 204.06 141.64 243.96 141.64 243.96 128.64 204.06 128.64 232.27 100.43 223.08 91.23 194.87 119.44 194.87 79.55 181.87 79.55 181.87 119.44 153.66 91.23 144.47 100.43 172.68 128.64 132.79 128.64 132.79 141.64 172.68 141.64 144.47 169.84"/><rect x="126.57" y="263.75" width="12" height="24.25" transform="translate(-158.87 182.36) rotate(-46.54)"/><rect x="102.91" y="288.77" width="12" height="25.77" transform="translate(-208.5 255.74) rotate(-61.92)"/><rect x="83.58" y="331.86" width="25.35" height="12" transform="translate(-14.81 4.57) rotate(-2.53)"/><rect x="315.26" y="311.58" width="26.93" height="12" transform="translate(-117.79 219.9) rotate(-31.67)"/><rect x="331.87" y="334.7" width="12" height="27.6" transform="translate(-60.25 626.19) rotate(-80.78)"/><rect x="520.24" y="186.91" width="27.72" height="12" transform="translate(-8.52 360.35) rotate(-37.01)"/><rect x="530.74" y="219.08" width="26.44" height="12" transform="translate(-23.69 69.1) rotate(-7.11)"/><rect x="530.84" y="255.12" width="26.8" height="12" transform="translate(-5.32 11.39) rotate(-1.19)"/><rect x="540.34" y="289.91" width="12" height="27.25" transform="translate(89.64 730.21) rotate(-72.11)"/><rect x="550.52" y="379.15" width="12" height="27.93" transform="matrix(1, -0.04, 0.04, 1, -15.27, 22.56)"/><rect x="577.53" y="400.23" width="33.5" height="12" transform="translate(-93.46 618.86) rotate(-51.54)"/><rect x="613.77" y="430.98" width="12" height="30.38" transform="translate(99.99 1005.65) rotate(-82.86)"/><rect x="492.22" y="250.23" width="6" height="49.95"/><rect x="492.22" y="306.89" width="6" height="10.7"/><path d="M280.35,345l5.73-1.78c-10.71-34.47-36.35-45.4-37.44-45.85l-2.3,5.55A53.3,53.3,0,0,1,259.65,312,73.21,73.21,0,0,1,280.35,345Z"/></svg>