<?xml version="1.0" encoding="UTF-8" standalone="no"?>
<svg
   xmlns:dc="http://purl.org/dc/elements/1.1/"
   xmlns:cc="http://creativecommons.org/ns#"
   xmlns:rdf="http://www.w3.org/1999/02/22-rdf-syntax-ns#"
   xmlns:svg="http://www.w3.org/2000/svg"
   xmlns="http://www.w3.org/2000/svg"
   xmlns:sodipodi="http://sodipodi.sourceforge.net/DTD/sodipodi-0.dtd"
   xmlns:inkscape="http://www.inkscape.org/namespaces/inkscape"
   inkscape:version="1.0 (4035a4f, 2020-05-01)"
   sodipodi:docname="computer-dark.svg"
   version="1.1"
   viewBox="0 0 681.61 533.78"
   data-name="Layer 1"
   id="Layer_1">
  <metadata
     id="metadata882">
    <rdf:RDF>
      <cc:Work
         rdf:about="">
        <dc:format>image/svg+xml</dc:format>
        <dc:type
           rdf:resource="http://purl.org/dc/dcmitype/StillImage" />
      </cc:Work>
    </rdf:RDF>
  </metadata>
  <sodipodi:namedview
     inkscape:current-layer="Layer_1"
     inkscape:window-maximized="0"
     inkscape:window-y="25"
     inkscape:window-x="0"
     inkscape:cy="266.89"
     inkscape:cx="340.805"
     inkscape:zoom="1.0284474"
     showgrid="false"
     id="namedview880"
     inkscape:window-height="984"
     inkscape:window-width="1383"
     inkscape:pageshadow="2"
     inkscape:pageopacity="0"
     guidetolerance="10"
     gridtolerance="10"
     objecttolerance="10"
     borderopacity="1"
     bordercolor="#666666"
     pagecolor="#ffffff" />
  <defs
     id="defs835">
    <style
       id="style833">.cls-1{fill:#fff;}</style>
  </defs>
  <rect
     style="fill:none"
     id="rect837"
     height="534.81"
     width="681.61"
     y="-0.46"
     x="0.36" />
  <path
     id="path839"
     d="M664.9,380.56c.22-6,.68-11.94.91-17.92a8,8,0,0,0-.77-4.07q-7.72-13.65-15.7-27.14c-3.37-5.7-7-11.26-10.35-17-7.22-12.34-14.32-24.75-21.5-37.12-2-3.4-4.08-6.74-6.4-10.57l-35.56,19.76c-3-9.63-5.79-18.77-10.51-27.22-5.4-9.65-12.17-17.86-21.92-23.34a26,26,0,0,0-19.16-3c-1.87.43-3.74.92-5.63,1.26-8.61,1.59-15.13,6.45-20.7,12.93-3.74,4.36-6,9.48-8.09,14.7-3.56,8.81-5.34,17.85-3.25,27.3.68,3.07,2,6,3,9a154.63,154.63,0,0,0,11,25.7c4.44,8.56,8,17.35,8.91,27.1a41.56,41.56,0,0,1,.21,8.42l-27.43-25.75,2.68-233.52L441.26,69,123.67,83.37l.78.55-.36-.07-14.8,106.31-2.51,215.42L240.57,513.21l2-.42L567,480.25l2.18-.22,28.3-38L514,363.73A40.76,40.76,0,0,0,516,350.85c.27-10.83-3.82-20.46-8.58-29.84-2.88-5.69-6.24-11.14-9.05-16.87-2-4.11-4.37-8.37-5-12.78-2.42-16.5,1.81-31.06,14.29-42.71,3.25-3,7.22-4.74,11.25-6.42,6.67-2.78,13.22-3.16,20-.09,7.25,3.3,12.59,8.51,16.93,15.09,5.07,7.67,8.17,16.18,11.17,24.74.91,2.63,1.34,5.43,2,8.39-3.44,2-6.76,3.84-10.06,5.75q-7.62,4.41-15.21,8.85a5,5,0,0,0-2.64,5.05c.19,6.14,0,12.28.16,18.42a11.22,11.22,0,0,0,1.53,5c4.21,7.32,8.55,14.56,12.89,21.79q10.44,17.4,21,34.76c5.45,8.95,11.1,17.78,16.47,26.77,1.79,3,2.2,3.46,6.07,1.41,5.64-3,11.35-5.89,17-8.9,15.35-8.18,30.66-16.43,46-24.58A4.4,4.4,0,0,0,664.9,380.56ZM504.49,368.47h0l4,3.72h0l71,66.68L276.1,472.65l-89-113.08,288-18.72,29.42,27.62ZM408.32,100.84l-24.27-19.3,25.41-1.16,24.27,19.31Zm-15.17.68-23.27,1L345.62,83.28l23.27-1Zm-38.43,1.74-26,1.17L304.49,85.15l26-1.18Zm-41.15,1.86-24.63,1.11L264.71,87l24.62-1.12Zm-39.79,1.8L249.15,108,224.93,88.76l24.62-1.12ZM234,108.72l-24.63,1.11L185.14,90.57l24.93-1.13-.12.16Zm240.54-.89L472,331l-30.37,1.87L181.62,349l2.62-228ZM465,98.27l-16.1.73L424.62,79.7l13.63-.62Zm-295-7,24.22,19.26-13.43.61L153.43,92Zm-37.45,4.27,11.53,2.1,30.23,21.13-2.66,230.73-27.4.63L117,386.47l2.24-195.25ZM119.39,402.91l30.84-41.13,25.42-.59L267.58,478,250,501.05l-6.85,1.43ZM563.8,470.54l-301,30.2,13.79-18.1L580,448.87Zm45.32-186.93c.65-3.35,1.51-6.65,2.46-10.67l48.07,83.59-.47.7a93.07,93.07,0,0,1-9.54-2.57,7.55,7.55,0,0,1-3.47-3.29q-15.34-27.21-30.5-54.53c-2-3.57-4-7.14-5.9-10.74A4.22,4.22,0,0,1,609.12,283.61ZM609,271.27l-9.52,14.25a7.77,7.77,0,0,1-4.54-1.39c-1.27-.82-2.7-1.38-5.06-2.56Zm-54.92,30.59a2.46,2.46,0,0,1,1.81,0c2.3,1,4.55,2.07,7.21,3.3l-6.93,5.1-9.72-4.15C548.78,304,551.57,303.12,554.12,301.86Zm42.93,88.74c-.35,2.34,0,4.78-.65,7.27l-50.49-88,.63-.6c4,2,8.39,3,11,7.72,5.35,9.72,11.31,19.12,17,28.64,6.24,10.39,12.26,20.91,18.82,31.08C596.24,381.1,597.85,385.36,597.05,390.6Zm-39.39-78.69,6.54-4.27c3.22,5.17,6.33,10.13,9.39,15.12,3.39,5.53,3.41,5.62,9.12,2.35,8.2-4.69,16.34-9.5,24.49-14.28.77-.45,1.44-1.05,2.42-1.77-1.63-7.5-6.34-13.78-8.92-21.26l5.84-3.12,38.19,70.42c-15,8.95-31,16.4-45.54,26.45C585.32,358.29,571.57,335.22,557.66,311.91Zm41.79,85.36c.23-5.16.43-9.67.6-13.67,15.05-8.45,29.65-16.6,44.18-24.87,2.85-1.62,5.49-2.3,8.61-.81,2.39,1.13,5,1.92,7.64,2.93Z"
     class="cls-1" />
  <path
     id="path841"
     d="M208.33,323a15.58,15.58,0,0,0,11,4.71h.17L435.11,315.6h0a15.65,15.65,0,0,0,15.65-15.47l1.81-156a15.66,15.66,0,0,0-15.47-15.83h-.16l-215.54,11h0a15.68,15.68,0,0,0-15.65,15.47l-1.86,157.07A15.55,15.55,0,0,0,208.33,323Zm7.38-168.08a5.69,5.69,0,0,1,5.68-5.61h.22l215.5-11a5.67,5.67,0,0,1,5.48,5.74l-1.81,156a5.72,5.72,0,0,1-5.74,5.62h-.17L219.32,317.69a5.69,5.69,0,0,1-5.47-5.74Z"
     class="cls-1" />
  <path
     id="path843"
     d="M245.67,383.1l36.53,42.42,16-1.12L306,439.47l43-4.8,7.13,17.42L494,437l-10.2-20,34.49-3.22L475,366.18Zm222.57,25.33,10.31,20.23L362.6,441.35l-7.13-17.42-43.75,4.87L304,414l-17.48,1.23-20.34-23.63,204.77-15.1,26.55,29.22Z"
     class="cls-1" />
  <rect
     id="rect845"
     transform="translate(-0.36 89.45) rotate(-12.47)"
     height="30.86"
     width="10"
     y="30.94"
     x="404.25"
     class="cls-1" />
  <rect
     id="rect847"
     transform="translate(306.89 473.73) rotate(-77.52)"
     height="10"
     width="28.04"
     y="40.76"
     x="434.42"
     class="cls-1" />
  <rect
     id="rect849"
     transform="translate(164.98 423.97) rotate(-55.97)"
     height="10"
     width="34.18"
     y="51.76"
     x="464.31"
     class="cls-1" />
  <rect
     id="rect851"
     transform="matrix(0.93, -0.36, 0.36, 0.93, 3.09, 188.3)"
     height="10"
     width="28.79"
     y="80.84"
     x="492.74"
     class="cls-1" />
  <rect
     id="rect853"
     transform="translate(-10.8 57.42) rotate(-6.34)"
     height="10"
     width="27.5"
     y="121.22"
     x="499.22"
     class="cls-1" />
  <rect
     id="rect855"
     transform="translate(308.8 667.35) rotate(-85.83)"
     height="31.29"
     width="10"
     y="151.96"
     x="508.32"
     class="cls-1" />
  <rect
     id="rect857"
     transform="translate(15.49 168.01) rotate(-25.97)"
     height="30.12"
     width="10"
     y="35.35"
     x="366.98"
     class="cls-1" />
  <rect
     id="rect859"
     transform="translate(87.79 977.6) rotate(-80.22)"
     height="10"
     width="35.04"
     y="431.69"
     x="606.67"
     class="cls-1" />
  <rect
     id="rect861"
     transform="translate(-112.56 270.57) rotate(-21.68)"
     height="30.03"
     width="10"
     y="414.19"
     x="645.27"
     class="cls-1" />
  <rect
     id="rect863"
     transform="translate(23.15 845.42) rotate(-66)"
     height="20.37"
     width="10"
     y="394.7"
     x="657.52"
     class="cls-1" />
  <polygon
     id="polygon865"
     points="269.64 198.82 287.6 270.63 276.02 270.54 275.84 293.16 321.31 293.54 321.5 270.91 314.31 270.85 330.95 245.67 349.09 272.52 341.13 273.79 344.69 296.14 389.05 289.06 385.48 266.71 375.37 268.32 389.69 192.08 405.12 194.35 408.42 171.97 353.23 163.83 349.93 186.22 367.28 188.78 356.96 243.75 337.16 214.44 324.43 214.5 304.45 244.72 291.68 193.66 306.24 190.25 301.08 168.22 249.54 180.28 254.69 202.31 269.64 198.82"
     class="cls-1" />
  <rect
     id="rect867"
     transform="translate(-43.48 123.16) rotate(-16.16)"
     height="10"
     width="26.73"
     y="209.7"
     x="398.55"
     class="cls-1" />
  <rect
     id="rect869"
     transform="translate(159.51 642.88) rotate(-88.02)"
     height="21.55"
     width="10"
     y="228.11"
     x="407.49"
     class="cls-1" />
  <rect
     id="rect871"
     transform="translate(-41.71 446.21) rotate(-55.05)"
     height="23.58"
     width="10"
     y="251.34"
     x="402.25"
     class="cls-1" />
  <rect
     id="rect873"
     transform="translate(-58.78 365.03) rotate(-66.9)"
     height="26.7"
     width="10"
     y="213.66"
     x="241.89"
     class="cls-1" />
  <rect
     id="rect875"
     transform="translate(-15.73 16.47) rotate(-3.74)"
     height="10"
     width="22.84"
     y="244.3"
     x="233.1"
     class="cls-1" />
  <rect
     id="rect877"
     transform="translate(-106.77 172.4) rotate(-31.66)"
     height="10"
     width="28.85"
     y="269.46"
     x="236.19"
     class="cls-1" />
</svg>
