<?xml version="1.0" encoding="UTF-8" standalone="no"?>
<svg
   id="Layer_1"
   data-name="Layer 1"
   viewBox="0 0 682.34 534.35"
   version="1.1"
   sodipodi:docname="Adapted_Wikipedia20symbols_penpaper_w.svg"
   inkscape:version="1.1.2 (08b2f3d93c, 2022-04-05)"
   xmlns:inkscape="http://www.inkscape.org/namespaces/inkscape"
   xmlns:sodipodi="http://sodipodi.sourceforge.net/DTD/sodipodi-0.dtd"
   xmlns="http://www.w3.org/2000/svg"
   xmlns:svg="http://www.w3.org/2000/svg">
  <sodipodi:namedview
     id="namedview47"
     pagecolor="#ffffff"
     bordercolor="#666666"
     borderopacity="1.0"
     inkscape:pageshadow="2"
     inkscape:pageopacity="0.0"
     inkscape:pagecheckerboard="0"
     showgrid="false"
     inkscape:zoom="1.5794892"
     inkscape:cx="213.99324"
     inkscape:cy="267.49155"
     inkscape:window-width="1848"
     inkscape:window-height="1016"
     inkscape:window-x="1352"
     inkscape:window-y="27"
     inkscape:window-maximized="1"
     inkscape:current-layer="Layer_1" />
  <defs
     id="defs4">
    <style
       id="style2">.cls-1{fill:#fff;}</style>
  </defs>
  <rect
     x="0.36"
     y="-0.46"
     width="681.61"
     height="534.81"
     id="rect6"
     style="fill:none;stroke:none;fill-opacity:1" />
  <path
     class="cls-1"
     d="M617.22,407.89a7,7,0,0,0-2.32-5.55l-.12-.11c-2.3-2.15-4.68-4.37-6.78-6.76-2-2.23-3.93-4.43-5.9-6.64-4.61-5.17-9.39-10.51-13.83-16a242.35,242.35,0,0,1-17.21-23.23c-.6-.95-1.23-1.88-1.86-2.8a49.75,49.75,0,0,1-3.2-5.11c-1.17-2.27-2.37-4.54-3.56-6.8-1.09-2.06-2.18-4.12-3.24-6.18l-1.12-2.12a69.14,69.14,0,0,1-3.61-7.53c-.73-1.93-1.61-3.8-2.46-5.62s-1.72-3.67-2.44-5.56a19.31,19.31,0,0,1-1.54-6.49,108.66,108.66,0,0,0-1.58-17.09,49.91,49.91,0,0,0-7.28-18.86,226.29,226.29,0,0,0-19.34-24.74c-3-3.44-6.21-6.79-9.32-10q-2.16-2.25-4.31-4.53c-.65-.69-1.32-1.38-2-2.07a57,57,0,0,1-4.38-4.81l-1-1.33a60.05,60.05,0,0,0-9-10l1.18-4.39c1-3.56,1.9-7.08,2.81-10.6.38-1.44.75-2.89,1.13-4.33,1.23-4.68,2.5-9.52,3.63-14.32,1.52-6.48,3.26-13,5-19.36.71-2.68,1.43-5.37,2.13-8.06,0-.12.07-.24.11-.37a2.91,2.91,0,0,0-.1-2.5l-.06-.1-.09-.07a22.49,22.49,0,0,0-7.47-3.68c-1.64-.39-3.29-.89-4.89-1.36-.71-.21-1.42-.43-2.14-.63l-3.32-1c-5.95-1.74-12.11-3.55-18.44-4.31-3.07-.37-4.08.31-4.95,3.32-.19.66-.37,1.33-.55,2a47,47,0,0,1-1.63,5.21A93.18,93.18,0,0,0,458.77,154c-.37,1.37-.75,2.74-1.15,4.11-1.74,6-3.94,11.9-5.88,17.11-1,2.78-1,2.79-4,2.7a8.25,8.25,0,0,0-8,5c-2.21,5.12-4.21,11.27-2.31,18,.13.47.21,1,.3,1.48s.13.82.22,1.22l0,.12c1,4.18,1.85,8.13.19,12.2a12.21,12.21,0,0,0-.66,2.63c-.1.51-.19,1-.32,1.52-.05.21-.1.43-.14.65a3.88,3.88,0,0,1-.35,1.19c-3.19-1.69-4.45-4-4-7.16a1.32,1.32,0,0,0,0-.48c-.26-2.54-.54-5.09-.81-7.63-.63-5.69-1.27-11.58-1.63-17.38-.29-4.84-.84-9.73-1.36-14.46-.48-4.26-1-8.67-1.27-13-.36-5-.9-10.14-1.42-15.08-.31-3-.62-5.92-.9-8.88-.2-2.2-.37-4.44-.52-6.6-.17-2.4-.35-4.88-.59-7.31-.37-3.79-.78-7.58-1.19-11.37-.68-6.42-1.4-13-1.92-19.58-.41-5.11-1.12-10.24-1.81-15.2L419,75.3a3.11,3.11,0,0,0-1.29-2.47l-.14-.1h-.18a73,73,0,0,1-8.66-.33,82,82,0,0,0-8.49-.37H400a117,117,0,0,1-12.7-.13c-7.57-.63-15-.88-21.21-1-4.17-.12-8.39-.44-12.48-.75-4.7-.36-9.57-.74-14.38-.79-2.33,0-4.72-.18-7-.33-1.92-.12-3.9-.25-5.85-.31-2.3-.06-4.6-.16-6.9-.25-3-.12-6.05-.25-9.08-.3-4.14-.08-8.35-.28-12.43-.48s-8.2-.4-12.31-.48c-1.51,0-3.05-.16-4.53-.29a49.11,49.11,0,0,0-6.32-.27c-3.14.12-3.51.46-4,3.6l-.47,3c-.65,4.21-1.33,8.56-1.85,12.86L268.3,88A123.77,123.77,0,0,1,266,102.64c-.65,2.68-1.17,5.34-1.55,7.9-.48,3.26-.89,6.59-1.28,9.81l-.71,5.76c-.47,3.75-.95,7.63-1.36,11.46-.24,2.31-.45,4.63-.65,7-.26,3-.53,6-.89,9-.3,2.46-.58,4.92-.86,7.38-.9,7.91-1.84,16.09-3.18,24.09s-2.42,16.23-3.46,24.16l-.14,1a4.29,4.29,0,0,1-1.8,3.12l-2.87,2.22c-2.21,1.72-4.5,3.5-6.78,5.2a4.47,4.47,0,0,0-.55.52,1.83,1.83,0,0,1-.88.65l-.49-2q-1.12-4.51-2.24-9.06a2.21,2.21,0,0,1,.07-.8c.13-.64.25-1.27.38-1.91.31-1.62.64-3.29,1.07-4.9,1.82-6.81,1.42-13-1.22-18.77-.1-.23-.2-.47-.29-.7s-.17-.39-.25-.58c-1.6-3.64-4.29-5.48-8-5.48h-2.85l-.15-.23a3.78,3.78,0,0,1-.43-.72c-.52-1.31-1-2.63-1.57-3.94-1.44-3.6-2.93-7.33-4.28-11-1.87-5.12-3.66-10.37-5.4-15.44l-1.38-4c-.51-1.5-1-3-1.47-4.52l-.9-2.78c-.83-2.54-1.69-3.1-4.34-2.89l-.36,0a9,9,0,0,0-1.44.18c-1.86.41-3.72.8-5.59,1.19a141.89,141.89,0,0,0-18.13,4.65,77.7,77.7,0,0,0-10.46,4.45l-.36.19.11.39c3,10.32,5.61,20.92,8.14,31.16,2.46,10,5,20.28,7.91,30.41-.66.64-1.39,1.26-2.09,1.86a26.36,26.36,0,0,0-3.82,3.73,8.41,8.41,0,0,1-1.65,1.47,7.36,7.36,0,0,0-1.86,1.78,37.11,37.11,0,0,1-5,5.95c-.8.81-1.63,1.66-2.41,2.53-1,1.15-2,2.39-2.92,3.59a49.22,49.22,0,0,1-3.48,4.19c-.37.39-.76.75-1.15,1.12a17.2,17.2,0,0,0-2.25,2.4l-.28.38c-2.81,3.83-5.71,7.8-8.83,11.47-1.05,1.23-2,2.56-2.92,3.84a47.06,47.06,0,0,1-3.65,4.64,24.58,24.58,0,0,0-3.11,4.26c-.55,1-1.12,1.93-1.68,2.89a112.22,112.22,0,0,0-6.76,12.77,74.09,74.09,0,0,0-5.37,18.07q-.65,4.49-1.26,9c-.37,2.63-.73,5.27-1.12,7.9A44.75,44.75,0,0,1,120.57,320c-1.85,4.24-4,8.43-6.13,12.48-1.12,2.15-2.27,4.36-3.36,6.56a106.6,106.6,0,0,1-7.7,12.46c-1.61,2.35-3.28,4.79-4.8,7.26a48.69,48.69,0,0,1-6.14,8.34c-3,3.11-5.72,6.47-8.37,9.73-1.91,2.34-3.88,4.76-5.92,7.06-3.41,3.83-7.09,7.52-10.66,11.09q-2.33,2.33-4.62,4.66l-.22.22c-1.44,1.46-3.24,3.29-2.13,6a35.59,35.59,0,0,1,1.28,4c.27,1,.55,2,.89,2.95a150,150,0,0,1,4.79,16.36A15.89,15.89,0,0,0,69,433.61c3.91,7.13,8.52,15.55,13,23.92,1.57,2.89,3.51,6.49,6.43,9.27,1.69,1.6,3.37,3.29,5,4.92l.47.47A106.85,106.85,0,0,0,107.6,484.3c1.87,1.33,3.72,2.68,5.58,4,2.53,1.84,5.14,3.74,7.76,5.56,1.31.9,2.68,1.74,4,2.55,1.11.69,2.27,1.39,3.37,2.13a25.33,25.33,0,0,0,6.36,3.18c2.19.7,4.34,1.61,6.42,2.5,1.19.51,2.38,1,3.59,1.48,1.88.74,3.74,1.51,5.6,2.28s4,1.66,6.07,2.45c4.1,1.59,7.38,1.21,10.33-1.19,1.84-1.5,3.77-2.95,5.64-4.36,1.52-1.14,3.1-2.32,4.61-3.52l2-1.58a97.5,97.5,0,0,0,8-6.71c3.54-3.43,7.36-6.65,11.06-9.77q2.1-1.75,4.18-3.54c3.7-3.18,7.55-6.31,11.28-9.35l4.06-3.32,2.91-2.41c2.57-2.14,5.23-4.35,7.94-6.38l3-2.21c3.82-2.84,7.76-5.77,11.54-8.79a71.72,71.72,0,0,1,8.67-6,4.12,4.12,0,0,1,1.35,2.2l.18.51.53,1.42c1.11,3,2.26,6,3.27,9.08a4.07,4.07,0,0,0,4,3.11l.71,0a8.51,8.51,0,0,0,1.82,0c8.33-1.06,14.79-2.79,20.35-5.45l1.1-.52c3.94-1.87,8-3.8,11-7.31a2.71,2.71,0,0,1,1-.65c.21-.1.42-.21.62-.33,2.22-1.36,3.88-4.7,2.8-7.15a36.65,36.65,0,0,1-1.69-5.13,34,34,0,0,0-1.95-5.73,17.59,17.59,0,0,1-1.69-5.33.79.79,0,0,1,.75-.17,13.75,13.75,0,0,0,5.28.67h.78c5.83,0,12,0,18.22,0H321a21.45,21.45,0,0,0,4.38-.27,32.42,32.42,0,0,1,7.54-.51,25.42,25.42,0,0,0,3.57-.1c4.86-.56,9.84-.73,14.65-.89,2.39-.08,4.85-.16,7.27-.29a10.24,10.24,0,0,1,1.45.05,9.36,9.36,0,0,0,2.05,0,74.17,74.17,0,0,1,10-.57,62.47,62.47,0,0,0,12.22-1,2.06,2.06,0,0,1,.74.06l.1,0q-.84,2.93-1.66,5.83-.68,2.37-1.33,4.66l-3.42,9.82.38.46-.27.89c-.87,2.77-.32,4.67,1.82,6.36.4.32.8.64,1.19,1a28.14,28.14,0,0,0,3.91,2.84,62.69,62.69,0,0,0,20.71,7.73c.64.11,1.29.24,1.94.37a19.34,19.34,0,0,0,6.86.53,4,4,0,0,0,3.73-2.86c.93-2.74,1.95-5.51,2.95-8.18l.86-2.32c.08-.21.15-.42.22-.63a4.16,4.16,0,0,1,1.31-2.26,2.64,2.64,0,0,1,1.26.63l.5.35c3.36,2.16,6.55,4.67,9.64,7.09,2.32,1.82,4.72,3.71,7.18,5.44l.56.39c2,1.38,4,2.81,5.88,4.35,6.68,5.49,13.43,11.13,19.95,16.58l1,.85,4.09,3.38c3.61,3,7.34,6,10.83,9.25,4.81,4.41,10.19,8.89,16.95,14.08l.8.6a56.14,56.14,0,0,1,6.87,5.89,31.88,31.88,0,0,0,6.28,4.78l.4.25.23-.08a66.5,66.5,0,0,0,10.17-4.76,6.3,6.3,0,0,1,1.18-.45,8.21,8.21,0,0,0,1.08-.38,35.51,35.51,0,0,1,4.88-1.66c1.09-.31,2.21-.63,3.29-1a55.85,55.85,0,0,0,11.8-6.12c.59-.38,1.22-.73,1.84-1.07a15.49,15.49,0,0,0,3.74-2.6,27.19,27.19,0,0,1,4.16-3.44c5.24-3.61,10.8-7.54,16-11.86A112.89,112.89,0,0,0,588.89,468a8,8,0,0,1,1.09-1,5.09,5.09,0,0,0,1.85-2.18,12.12,12.12,0,0,1,2.75-3.93c.29-.32.58-.63.86-1a15.9,15.9,0,0,0,3-4.81,13.59,13.59,0,0,1,1.66-2.92c3.88-5.52,6.83-11.66,9.69-17.6l.19-.4a9.57,9.57,0,0,0,.71-2.54,6.88,6.88,0,0,1,.74-2.41,27.34,27.34,0,0,0,2.72-7,38.61,38.61,0,0,1,1.58-4.77c.11-.26.26-.52.4-.79a4,4,0,0,0,.71-2.37,12.39,12.39,0,0,1,.12-3.74A18.46,18.46,0,0,0,617.22,407.89ZM462.37,162,469.55,139l5.83,1.61c5.19,1.44,10.08,2.8,15.1,4.07.81.2,1.62.36,2.44.52a17.43,17.43,0,0,1,6,2c-1,7.74-2.21,15.93-5.43,23.77-9.92-1.28-19-4.53-28.6-8ZM135.63,283.33c.36-.9.73-1.84,1.06-2.78.79-2.31,1.84-4.59,2.85-6.79.52-1.13,1-2.26,1.53-3.4a29.8,29.8,0,0,1,1.4-2.69,18.89,18.89,0,0,0,2-4.5,2.89,2.89,0,0,1,1-1.48,12.47,12.47,0,0,0,3-4.1c1.76-3.72,4.51-6.78,7.16-9.75,1.2-1.32,2.43-2.7,3.57-4.12,3.5-4.39,6.47-7.81,9.34-10.77,1.62-1.66,3.17-3.41,4.68-5.1,1.68-1.89,3.42-3.85,5.23-5.67a18,18,0,0,1,2.25-1.81,22.38,22.38,0,0,0,2.68-2.17l1,1.83c.86,1.56,1.63,3,2.37,4.42,2,3.84,5.47,5.16,9.35,3.53,5.28-2.22,10.8-4.77,15.12-9.36,2.27-2.42,4.67-4.79,7-7.09,2.87-2.86,5.85-5.8,8.62-8.86a44.25,44.25,0,0,1,3.73-3.52c.43-.37.86-.74,1.28-1.12a2.08,2.08,0,0,1-.06.85c-1.91,7.08-3.79,13.43-7.38,19.37a109.68,109.68,0,0,0-5.24,10.28c-1.45,3.13-2.81,6.36-4.12,9.48-.78,1.85-1.56,3.7-2.39,5.61a1.56,1.56,0,0,1-.23.43,67.08,67.08,0,0,0-7.2,11.44c-1.38,2.55-2.81,5.2-4.42,7.65-2.1,3.18-4,6.55-5.75,9.82-1.19,2.16-2.42,4.4-3.7,6.56a7.57,7.57,0,0,0-.79,6.4c.75,2.49,1.57,5,2.37,7.44s1.63,5,2.39,7.51l.36,1.18c2.1,6.92,4.27,14.07,5.07,21.41.32,2.92.78,6.12,1.44,10.07a45.63,45.63,0,0,1,.29,9l-.14,4c-.15,4.26-.3,8.66-.39,13,0,2.33.28,2.53,2.83,3.35l.55.18.18-.41c2.32-5.19,2.63-10.6,3-16.33.12-2,.23-4,.43-6A21.53,21.53,0,0,0,218,348.1a1.22,1.22,0,0,1,.25,1.23,20.71,20.71,0,0,0,1.07,10.89,69.63,69.63,0,0,0,8.85,17.47l.1.14a4.12,4.12,0,0,0,1.19,1.31c1.87,1.12,2.69,2.95,3.57,4.88l.33.73a91.6,91.6,0,0,1,4.69,14c.75,2.71,1.53,5.51,2.44,8.22s1.72,5.25,2.57,7.87c1.66,5.16,3.38,10.5,5.33,15.66.27.73.48,1.47.7,2.26l.22.76c-1.22.73-2.44,1.46-3.67,2.18-3.25,1.92-6.62,3.91-9.87,6a40.2,40.2,0,0,0-4.59,3.6l-.91.79c-4.93,4.22-10.22,8.17-15.35,12-4.65,3.47-9.47,7.07-14,10.86-2.65,2.21-5.23,4.6-7.73,6.91l-1.86,1.7c-4.25,3.91-8.8,8-13.57,11.91a105.85,105.85,0,0,0-13.85,13.36c-1.16,1.35-2.13,1.83-4.26.69-1.59-.85-3.24-1.66-4.83-2.45-2.71-1.33-5.5-2.71-8.11-4.33a42.79,42.79,0,0,0-7.48-3.89,45,45,0,0,1-6.94-3.48c-1.23-.71-2.52-1.45-3.82-2.11-1.53-.78-3.06-1.64-4.54-2.48-1.12-.64-2.24-1.28-3.38-1.89a59.3,59.3,0,0,1-10.36-7.45c-.93-.79-1.83-1.61-2.74-2.44-1.48-1.35-3-2.75-4.66-4a24,24,0,0,1-3.68-3.58,116.51,116.51,0,0,1-11.56-16.51,229.59,229.59,0,0,1-13-25.45c-1.68-3.83-3.49-7.67-5.25-11.38l-.61-1.3c-1.54-3.27-1.09-6.28,1.31-8.69a215.49,215.49,0,0,0,16.67-19.36c1.6-2.05,3.27-4.11,4.88-6.1s3.17-3.92,4.72-5.9c.81-1,1.61-2.06,2.42-3.08,3.26-4.13,6.62-8.4,9.71-12.76,1.15-1.63,2.25-3.33,3.31-5s2.12-3.28,3.24-4.87a136.16,136.16,0,0,0,8.45-13.69,64.44,64.44,0,0,0,6.74-19.85c.9-5.15,1.73-10.41,2.54-15.49q.54-3.42,1.09-6.84A27.21,27.21,0,0,1,135.63,283.33Zm149-210.62,3.49.17c4.44.23,9,.46,13.52.91,3.32.34,6.69.39,10,.44,2.8,0,5.71.09,8.54.32,1.46.11,2.94.16,4.37.21a48.45,48.45,0,0,1,8.4.79,7.93,7.93,0,0,0,1.86.19,166,166,0,0,1,18.17.75l1,.08c2,.16,4.11.18,6.12.19a46.67,46.67,0,0,1,11.15,1,7.12,7.12,0,0,0,2.11.12,10.65,10.65,0,0,1,1.13,0c1.66.08,3.33.13,5,.17A90.26,90.26,0,0,1,392,79a9.79,9.79,0,0,0,2.81-.07l1.09-.12c3.73-.27,7.5-.23,11.16-.18,1.72,0,3.43,0,5.13,0a3.4,3.4,0,0,1,.62,2,105.38,105.38,0,0,0,1.56,13c.34,2.07.68,4.2,1,6.31.4,3,.63,6.17.84,9.19.13,1.89.27,3.84.45,5.75.26,2.69.38,5.44.5,8.1.15,3.28.31,6.68.71,10,.14,1.16.2,2.37.27,3.55a40.51,40.51,0,0,0,.5,5.12c1.25,6.9,1.9,14,2.52,20.85l.23,2.52c.31,3.3.63,6.52,1.21,9.74a21.69,21.69,0,0,1,.33,3.74,78.21,78.21,0,0,0,1.35,14.3,15,15,0,0,1,.18,2.72c0,.46,0,.93,0,1.4.1,2.17.4,4.34.69,6.45a55.76,55.76,0,0,1,.71,8.39,4.58,4.58,0,0,0,.34,1.57,1,1,0,0,0,.05.16,8.8,8.8,0,0,1-5.21-2.32c-1.9-1.82-4.3-2.52-6.62-3.2l-1.36-.41c-1.75-.55-3.25.42-4.57,1.28-.3.2-.6.39-.89.55a56.62,56.62,0,0,0-12,9.43l-.68.7q-3.09,3.13-6.16,6.29a51.11,51.11,0,0,0-4.24,5.17c-1.74,2.33-1.79,4.64-.18,7.27a4.11,4.11,0,0,1,.24.55c-7.9,4.24-13.11,11-17.57,17.72a39.76,39.76,0,0,0-4.15,8.93,5.72,5.72,0,0,0-.16,4.13c.88,2.11-.22,3.43-1.76,4.94-7.73,7.58-12.46,15.7-14.46,24.8l-.27,1.12a14.36,14.36,0,0,0-.58,3.79c0,.17,0,.36,0,.54a5,5,0,0,0,.41,2.44,16.54,16.54,0,0,1,1.47,4,17.61,17.61,0,0,0,1.53,4.17,1.37,1.37,0,0,1-.52,2.06c-.72.54-1.41,1.13-2.08,1.7s-1.31,1.1-2,1.61a12.48,12.48,0,0,0-3.4,3.69c-1.05,1.82-2,3.7-3,5.68l-.88,1.75a102.39,102.39,0,0,0-11.75-17.38,5.39,5.39,0,0,1,.82-2.37c3.3-6,3.32-12.4.07-19.54a46.45,46.45,0,0,0-9.92-14.36c-.43-.42-.84-.85-1.25-1.28a18.06,18.06,0,0,0-3.39-3c0-.05,0-.1,0-.15a1.55,1.55,0,0,1,0-.17c1.74-3.55,1.31-7.08.66-10.07a34.82,34.82,0,0,0-11.27-19.46L301,244a29.58,29.58,0,0,0-4.62-3.51,15.6,15.6,0,0,0-2.14-1,11.26,11.26,0,0,1-2.67-1.32c.49-3.87-1.29-7.07-3-9.78-4.4-6.95-8.77-11.84-13.73-15.38-5.17-3.69-9.77-4.68-14.5-3.13a3.44,3.44,0,0,1-.83.13h-.17a16.85,16.85,0,0,1,0-4.81c.05-.51.1-1,.13-1.51.86-12.82,2.34-25.63,4.38-38.08,1.48-9,3-18.71,3.88-28.37.7-7.47,1.83-15,2.92-22.33.23-1.54.46-3.08.68-4.62.64-4.32,1.48-8.67,2.3-12.89.65-3.31,1.31-6.74,1.87-10.13.71-4.29,1-8.58,1.4-13.12l.09-1.12a22.14,22.14,0,0,1,7.21-.41ZM247.81,383.39c.81-.47,1.6-1,2.53-1.57l1.06-.67A90.9,90.9,0,0,1,258,394.44a5.56,5.56,0,0,1-3.65,1.8l-.32.07a20.12,20.12,0,0,1-3.34.32,19.07,19.07,0,0,0-3.95.45c-.48.12-1-.22-1.52-.6a6.52,6.52,0,0,1-2.58-4.35,6.39,6.39,0,0,1,1-4.83A14.54,14.54,0,0,1,247.81,383.39Zm185.41-12.27A6.92,6.92,0,0,1,429,369.5a116.82,116.82,0,0,0-13.34-7.76,58.1,58.1,0,0,1-10.33-7.15c-1.31-1.06-2.67-2.15-4.05-3.18L399,349.73c-2-1.47-4.09-3-6-4.63-1.43-1.23-2.88-2.45-4.33-3.67-1.77-1.48-3.53-3-5.27-4.47-6-5.22-11.48-10.06-16.79-14.78a25.15,25.15,0,0,1-3-3.29c-.35-.44-.69-.89-1-1.34a26,26,0,0,0-3.53-4.07,2.65,2.65,0,0,1-.74-.89,27.54,27.54,0,0,0-4.15-6.51l-.26-.34a4,4,0,0,1-.66-3.25,23.16,23.16,0,0,1,4.16-11.08,11.74,11.74,0,0,0,1.76-3.19c1.23-3.67,3.7-6.38,6.31-9.25l.74-.81a2.62,2.62,0,0,1,.47-.32l.21-.12a23.69,23.69,0,0,1,3,3.4c.23.3.46.61.7.9a84.56,84.56,0,0,0,8.28,8.62c1.5,1.41,3,2.87,4.5,4.37,4.62,4.72,9.71,9.07,14.64,13.28,1.72,1.47,3.45,2.95,5.16,4.44,4.65,4.06,9.65,7.8,14.48,11.41q2.7,2,5.37,4a204.62,204.62,0,0,0,17.82,12.38,13,13,0,0,1,2.9,2.34,12.69,12.69,0,0,1-2.44,1.79,13.91,13.91,0,0,0-2.72,2l-.22.23a8.51,8.51,0,0,0-2.28,3.31,16.61,16.61,0,0,1-1.4,3,20.86,20.86,0,0,0-1.41,2.93C431.14,362.07,431.12,366.7,433.22,371.12ZM410.28,398.5c-.75-.31-1.47-.67-2.18-1l-2.34-1.19c-6.17-3.12-12.56-6.35-18.27-10.46l-3.35-2.4c-7.73-5.54-15.73-11.27-23.12-17.55-1.62-1.38-3.37-2.64-5.06-3.87a66.78,66.78,0,0,1-5.72-4.43l-1-.89a40.9,40.9,0,0,1-6.72-7,7.43,7.43,0,0,1-1.33-6.79c.4-1.29.75-2.59,1.11-3.89A52.45,52.45,0,0,1,346,328.46a18.45,18.45,0,0,1,9-8.19q1.24,1.22,2.46,2.37c1.91,1.83,3.71,3.56,5.4,5.42,6.65,7.35,14.15,14,21.9,20.68A128.61,128.61,0,0,0,401.5,361a21.15,21.15,0,0,1,4.34,3.3A12,12,0,0,0,408,366l.71.46c3.18,2.18,6.38,4.35,9.6,6.54l3,2.06-1.72,2.53c-1.52,2.24-3,4.45-4.55,6.64a29.92,29.92,0,0,0-3.32,6.23c-1.31,3.4-1.22,5.26.64,8.46Zm63.31-109.88.82-1,.58-.75a5.49,5.49,0,0,1,2.42-2.17,5.08,5.08,0,0,1,.59,5.61,62.08,62.08,0,0,0-3.28,10,8.07,8.07,0,0,1-1.08,2.59c-2.23-.58-3.23-2.24-4.28-4-.25-.41-.5-.83-.76-1.23s-.13-.63.07-1.18c.05-.12.09-.24.13-.37C469.72,293.22,471.69,290.88,473.59,288.62ZM456,333.16l1.59-3a104.62,104.62,0,0,1,5.56-9.65,16,16,0,0,1,4-3.92,2.2,2.2,0,0,1,1,2.6c-.59,1.79-1.05,3.64-1.48,5.44a39,39,0,0,1-3,9.05,22.65,22.65,0,0,1-3.13,4.24l-.55.64c-.52.6-1,.66-1.87.23a4.72,4.72,0,0,1-2.5-2.65A3.8,3.8,0,0,1,456,333.16Zm-6.69-2a9.54,9.54,0,0,0,.85,8.48l.18.27c.13.2.24.38.34.57a37.81,37.81,0,0,1-10.87-6.87c-2.72-2.32-5.63-4.51-8.44-6.63-2-1.53-4.16-3.13-6.18-4.76-5-4-9.87-8.16-14.63-12.21l-3-2.57c-3.37-2.86-6.67-5.91-9.86-8.86-3.87-3.58-7.87-7.28-12-10.68a71.19,71.19,0,0,1-9.31-9.33c-.85-1-1.8-2-2.72-2.9l-.42-.42a27.58,27.58,0,0,1-2.89-3.37,5.09,5.09,0,0,1-.42-5.44c1.07-2.45,1.85-4.35,2.52-6.17,2.48-6.76,7.68-11.33,12.94-15.27a6.41,6.41,0,0,1,3.7-.94h.32a2.38,2.38,0,0,1,1.51.76c7.38,6.17,14.27,13,20.14,18.83,3.52,3.51,6.68,6.5,9.68,9.13,1.92,1.69,3.74,3.55,5.51,5.35,1.59,1.63,3.24,3.32,5,4.88a5.12,5.12,0,0,1,.44.49,4,4,0,0,0,.82.82,51,51,0,0,1,5.63,4.61,51.71,51.71,0,0,0,5.93,4.82,31.69,31.69,0,0,1,4.92,4.37l.17.17a38.35,38.35,0,0,0,4.3,3.62c1.06.81,2.16,1.64,3.15,2.54,1.67,1.49,3.29,3.12,5,4.84l1.36,1.36a20.51,20.51,0,0,0-6.13,6c-.49.64-1,1.28-1.49,1.9-2.89,3.46-4.31,7.72-5.69,11.83ZM423.22,396.5a10.64,10.64,0,0,1-6-2.11c1.09-1.83,2-3.76,2.94-5.63a56.16,56.16,0,0,1,4.15-7.54l.1.06c3,1.78,5.62,3.31,7.51,5.89a7,7,0,0,1-1.32,9.21,2.34,2.34,0,0,1-2.12.66,13.8,13.8,0,0,0-3.68-.46C424.29,396.56,423.75,396.55,423.22,396.5Zm14.26-33.34c2.1-6,5-10.55,8.76-14a7.84,7.84,0,0,1,2.78,1.18l.86.48c2.05,1.08,2.68,2.48,2.26,5a34,34,0,0,1-2.67,7.87l-.49,1.14a40.27,40.27,0,0,1-3.09,6c-1,1.55-2,2.4-3,2.52a3.75,3.75,0,0,1-2.95-1.36C437.09,369.31,436.31,366.49,437.48,363.16ZM221.56,336.61c-1.46,2.92-1.57,3.05-3.91,4.19a14.82,14.82,0,0,1-6-8.51,47,47,0,0,1-1.69-13.48c4.32,4,7,9,9.53,13.89C220.15,334,220.84,335.32,221.56,336.61Zm-9.38-23.19a1.66,1.66,0,0,1-.81-.82,11.92,11.92,0,0,1,3.15-3.74l.43-.32A8.51,8.51,0,0,0,218,305.2a1.85,1.85,0,0,1,.76-.73,40.76,40.76,0,0,0,8.1-6.42c1.1-1,2.24-2.11,3.41-3.1a3.35,3.35,0,0,0,.47-.55,1.94,1.94,0,0,1,.38-.41,29.31,29.31,0,0,0,6.32-4.89,41.81,41.81,0,0,1,4-3.42,52.34,52.34,0,0,0,7.21-6.72c2.78-3,5.81-5.76,8.74-8.46,1.77-1.64,3.6-3.33,5.36-5l3.85-3.71c2.88-2.75,5.85-5.6,8.66-8.52a66.61,66.61,0,0,1,5.28-4.71c1.56-1.3,3.17-2.63,4.66-4.08s3.44-1.49,5.35.07c.76.63,1.48,1.35,2.18,2.05s1.22,1.22,1.87,1.79c5,4.31,8.12,9,9.61,14.34a8.82,8.82,0,0,0,1,2.41c2.45,3.69.51,6.67-1.71,9.1a239.24,239.24,0,0,1-19.7,19.19c-5.26,4.57-10.85,9.63-17.09,15.48-.48.45-.89.81-1.29,1.12-2.77,2.19-5.53,4.48-8.2,6.7-4.46,3.71-9.07,7.54-13.89,11-2.79,2-5.47,4.21-8.05,6.37l-2.87,2.39a14.72,14.72,0,0,1-4.65,2.64c.83-2.32.1-4.07-.87-5.92-.53-1-1.06-2.07-1.58-3.11-.82-1.64-1.67-3.33-2.58-5-2.65-4.78-6.54-8.39-10-11.29A3.82,3.82,0,0,0,212.18,313.42Zm13.16,43.82c0-.76.22-1.29.58-1.5a.87.87,0,0,1,.44-.11,2.13,2.13,0,0,1,1,.28,7.86,7.86,0,0,1,2.15,1.48c2.57,2.79,5.4,6.12,6.42,10.29a8.9,8.9,0,0,1-2.15,8.41c-4.94-6.38-7.52-11.92-8.35-17.89A6,6,0,0,1,225.34,357.24ZM206.6,298.79c-.93,1.23-1.91,2.48-3,3.82a.42.42,0,0,1-.32.17L197.22,286c.83-.74,1.36-1,1.73-1s.62.25,1.05.75c2.74,3.21,4.9,5.87,6.79,8.37C208.11,295.84,208.07,296.85,206.6,298.79Zm84,94.1,1-.57a46.45,46.45,0,0,0,4.63-3.22,36.65,36.65,0,0,1,5.72-3.8,22.8,22.8,0,0,0,6.15-4.65,41.78,41.78,0,0,1,4.68-4l1.36-1.07a4.64,4.64,0,0,1-.94,1.36l-.2.23c-1.53,1.76-3,3.62-4.39,5.42a93,93,0,0,1-6.7,7.95l-.17.16a1.88,1.88,0,0,0-.62.86c-.57,2.13-2,3.65-3.49,5.26a20,20,0,0,0-2.85,3.57A11.19,11.19,0,0,1,292.3,403a18.49,18.49,0,0,0-2.46,2.4l-4.09-10.05A24.22,24.22,0,0,0,290.61,392.89Zm-51.67-14.71a5.79,5.79,0,0,1,.82-1.65l.3-.48a11.41,11.41,0,0,0,1.75-8.21c-.11-.62-.21-1.23-.31-1.85a37.48,37.48,0,0,0-1.2-5.67c-1.27-4-4.09-6.78-6.82-9.47l-.43-.43a5.88,5.88,0,0,0-3.42-1.59,25.78,25.78,0,0,1-2.8-.57l-1-.23c.14-1.22,1.09-1.87,2.09-2.55.25-.17.5-.33.72-.51,3.17-2.42,6.57-4.66,9.86-6.82,3.68-2.43,7.48-4.93,11-7.73,2.72-2.16,5.6-4.22,8.38-6.21,2.23-1.6,4.54-3.25,6.76-4.94,2.61-2,5.14-4.2,7.59-6.32l1.82-1.57c4.51-3.88,9.35-8.06,14.22-12.37,1.19-1.06,2.33-2.2,3.42-3.31.53-.54,1.06-1.07,1.6-1.6l2.44-2.37a110.77,110.77,0,0,0,12-12.92,1.79,1.79,0,0,1,1.05-.79c.68.82,1.41,1.62,2.12,2.39a26.91,26.91,0,0,1,5.11,7,48.79,48.79,0,0,0,2.54,4.74c.78,1.35,1.6,2.74,2.27,4.16a20.48,20.48,0,0,1,1.43,5.26c.1.57.2,1.14.32,1.72a2.42,2.42,0,0,1-.44,1.93c-.78,1.07-1.49,2.22-2.17,3.33a34.6,34.6,0,0,1-2.81,4.15c-.7.85-1.4,1.71-2.09,2.57a62.18,62.18,0,0,1-9.38,10c-3.23,2.56-6.34,5.37-9.35,8.08-2.1,1.9-4.27,3.86-6.46,5.71-4.37,3.7-8.95,7.26-13.39,10.71-3.15,2.45-6.4,5-9.55,7.53a30.61,30.61,0,0,1-5.72,3.79,25.35,25.35,0,0,0-4.69,3.22c-4.55,3.71-9.24,7.41-13.77,11l-3.41,2.7A1.85,1.85,0,0,1,238.94,378.18Zm23.57,12.08c-.66-1.27-1.31-2.55-2-3.83-1.23-2.41-2.5-4.9-3.81-7.32a25.54,25.54,0,0,0-1.89-2.85c-.25-.34-.51-.69-.77-1.06l1-.7,11.73-8c.21-.14.44-.27.66-.4a6.42,6.42,0,0,0,1.15-.77,108.59,108.59,0,0,1,10-7.44c2.93-2,6-4.09,8.79-6.39,4.64-3.8,9.56-8.14,15.47-13.67s11.83-11.72,17.2-17.44a1.92,1.92,0,0,1,1.44-.71,1.9,1.9,0,0,1,1.36.83c4.14,5.28,8.84,11.26,10.34,18.87a11.48,11.48,0,0,0,.69,2.1q.19.47.36.93a7.61,7.61,0,0,1-1.28,7.43,39.05,39.05,0,0,1-7.22,7.39c-7,5.66-15.08,12.22-23.33,18.27l-3.68,2.72c-6.05,4.49-12.3,9.14-19,12.8-1,.53-2,1.07-2.93,1.62a90.83,90.83,0,0,1-12.61,6.16l-.3.11a3.54,3.54,0,0,1-.94.28C265,396,263.94,393,262.51,390.26ZM458.66,251.14c.42.66.86,1.34,1.34,2a236.9,236.9,0,0,1,14.93,22.72l.1.15a3.5,3.5,0,0,1,.44.95,2.63,2.63,0,0,0,.5,1,2,2,0,0,1-1.34,1.06l-.24.08a10.64,10.64,0,0,0-5.05,4.08l-.86,1.18a53.94,53.94,0,0,0-3.86,5.79c-1.74,3.2-3.58,7.9-.08,12.39l-.65-.46a35.3,35.3,0,0,1-4-3.09c-2.64-2.48-5.43-4.85-8.13-7.15-2.26-1.92-4.6-3.9-6.82-5.93l-4.08-3.7c-7.14-6.47-14.52-13.15-20.9-20.61a60.94,60.94,0,0,0-6.42-6.15c-1-.89-2-1.78-3-2.71-2.31-2.14-4.48-4.5-6.59-6.78-1.09-1.19-2.18-2.37-3.3-3.54a54.24,54.24,0,0,0-8.92-7.5,1.23,1.23,0,0,1-.66-1.08c0-.6.75-1.45,1.41-2.12,3.26-3.36,6.73-6.95,10.14-10.65a24.59,24.59,0,0,1,7-4.91,4.49,4.49,0,0,1,2.19-.52,9.21,9.21,0,0,1,2.18.31c5.32,1.36,9.24,4.59,13.82,8.67q2.49,2.24,5,4.52c2.48,2.27,5,4.63,7.64,6.87a122.29,122.29,0,0,0,14.57,10.87A12.78,12.78,0,0,1,458.66,251.14Zm-192.45-35a25.11,25.11,0,0,1,6.73,4.68c3.18,3.43,6.58,7,10.38,10.91a6,6,0,0,1,1.39,2.39,13.58,13.58,0,0,1-2.91,2.42,20,20,0,0,0-2.41,1.85l-1.54,1.4a41,41,0,0,0-3.3,3.17,159.34,159.34,0,0,1-14.85,14.69,82.59,82.59,0,0,0-8.36,8.7l-.83.95a110,110,0,0,1-9.81,9.52c-1.19,1.07-2.39,2.14-3.57,3.22-5.19,4.79-10.59,9.55-15.81,14.14-1.67,1.47-3.33,2.93-5,4.45a16.84,16.84,0,0,1-4,2.82,11.34,11.34,0,0,0,.62-3.54c0-.51.06-1,.13-1.47.54-3.43-.56-6.47-3.46-9.56-.91-1-1.86-1.92-2.78-2.84-1.18-1.18-2.41-2.4-3.53-3.66a7.45,7.45,0,0,0-3.37-2.34,8.89,8.89,0,0,1,.86-2.28,240.7,240.7,0,0,1,15.61-23.53l.05-.1c1.6-3.61,4.62-5.53,7.83-7.57a42.39,42.39,0,0,0,3.88-2.67c.31-.24.63-.46,1-.69a13.56,13.56,0,0,0,1.56-1.23c2.08-1.93,4.27-3.81,6.38-5.64s4.48-3.87,6.65-5.9l.38-.35A98.71,98.71,0,0,1,254.7,219a21.21,21.21,0,0,1,6.35-2.69c.86-.26,1.71-.52,2.56-.82A3.57,3.57,0,0,1,266.21,216.15ZM232.1,187.27q-2.59,2.8-5.16,5.63c-4.09,4.46-8.31,9.08-12.55,13.54-2.29,2.41-4.86,4.65-7.34,6.83l-1.31,1.15c-.44.39-.83.8-1.21,1.19s-.5.53-.76.78c-2.64,2.55-5.68,4.83-9.92,4.25L192.7,219c-.95-1.36-1.94-2.76-2.77-4.21-1.1-1.92-1.1-1.92.59-3.59,1.24-1.22,2.45-2.47,3.65-3.72a85.66,85.66,0,0,1,9.64-9,18.94,18.94,0,0,0,2.6-2.54,22,22,0,0,1,2.09-2.12,60.93,60.93,0,0,1,7-4.9L217,188c.8-.51,1.59-1.07,2.35-1.61a38.15,38.15,0,0,1,3.59-2.34,18.13,18.13,0,0,1,5.54-1.71l.25-.05c1.22-.24,2.32.23,3.55,1.55A2.4,2.4,0,0,1,232.1,187.27Zm52,259.1a44.49,44.49,0,0,1-13.36,5.48Zm9.85-35.7a34.05,34.05,0,0,0,4.16-4.16c.64-.72,1.28-1.43,1.94-2.12a22.91,22.91,0,0,0,4.93-6.53,4.84,4.84,0,0,1,.91-1.28,119,119,0,0,0,8.59-10.47c1.6-2.12,3.26-4.31,5-6.39a31.15,31.15,0,0,0,4.52-6.66,5.54,5.54,0,0,1,1.32-1.54l.16-.15a25.73,25.73,0,0,0,3.33-4.11c.46-.65.92-1.31,1.4-1.93a62.49,62.49,0,0,0,7-10.88.61.61,0,0,1,.5-.41h0a1.07,1.07,0,0,1,.81.57,9.19,9.19,0,0,1,.53,1c.12.28.24.55.38.82l.32.6c1.37,2.57,2.79,5.23,5.13,7.23a2.36,2.36,0,0,1,.75,1.21,9.35,9.35,0,0,0,2.89,4.22,33.33,33.33,0,0,1,4.82,6.21,92,92,0,0,0,6.32,8.3c1.17,1.43,2.29,2.94,3.37,4.41,1.3,1.76,2.65,3.58,4.11,5.27,1.62,1.87,3.15,3.88,4.64,5.82a90.46,90.46,0,0,0,6.82,8.21,9.39,9.39,0,0,0,1.29,1.07A5.79,5.79,0,0,1,382,411.2c-9.61,1.05-19.24,1.25-28.56,1.44l-7.24.16c-8.6.23-17,.49-25.51,1.12-2.51.19-5.1.19-7.59.2-1.31,0-2.62,0-3.92,0s-2.46,0-3.69,0a87.25,87.25,0,0,0-12,.66C292.08,412.41,292.06,412.21,294,410.67Zm82.11-16.09c-.32-.25-.43-.43-.44-.5-.47-2.51-2.15-4.08-3.77-5.61-.35-.33-.7-.66-1-1a11.27,11.27,0,0,1-1.45-1.94c-.3-.46-.6-.93-.95-1.38-1.42-1.81-2.91-3.6-4.35-5.34L362.62,377a6.76,6.76,0,0,1-1-1.44l1.35,1.09c1.85,1.5,3.45,2.79,5,4.22a33.44,33.44,0,0,0,6.74,4.9,31.81,31.81,0,0,1,4,2.68,81.64,81.64,0,0,0,8.64,5.8,7,7,0,0,0,2,.88c1.62.36,1.83.82,1.65,2a65.48,65.48,0,0,1-2.85,11.35l-.36-.4a12.63,12.63,0,0,1-2.27-3.09,3.75,3.75,0,0,0-1.24-1.55,18.19,18.19,0,0,1-4.27-4.59A22.13,22.13,0,0,0,376.09,394.58Zm51.47,35.25c1.11-3.33,2.26-6.78,3.45-10.17,3.53-10,6.52-20.24,8.73-28,.72-2.54,1.55-5.1,2.36-7.57.29-.91.59-1.82.88-2.72a1.88,1.88,0,0,1,1.51-1.47,7.22,7.22,0,0,0,4.22-3.51c.6-.93,1.21-1.85,1.82-2.77,1.18-1.77,2.4-3.61,3.46-5.5a32.61,32.61,0,0,0,3.69-12.5,10.48,10.48,0,0,0-1.48-6.37,46.8,46.8,0,0,0,9.37-6.87c.64,2.65,1.1,5.3,1.55,7.87.82,4.74,1.6,9.23,3.41,13.64l.23.56.5-.33a3.6,3.6,0,0,0,1.82-3.71v-.18c-.07-3-.17-6.44-.57-9.82a52.8,52.8,0,0,1,.55-14.51c.37-2.35.7-4.7,1-7.05.42-3,.86-6.14,1.38-9.19a145.75,145.75,0,0,1,5.86-22.94c.54-1.58.94-3.22,1.32-4.79a39.38,39.38,0,0,1,2-6.48c.92-2.09.66-4.38-.79-7-2.68-4.88-5.57-9.74-8.37-14.44-2.13-3.57-4.32-7.26-6.41-10.94-1.87-3.28-3.66-6.19-5.5-8.91a29.61,29.61,0,0,1-2.82-6c-.43-1.13-.87-2.3-1.39-3.42-1.82-4-3.73-8-5.52-11.64-.81-1.68-1.71-3.35-2.59-5A56.15,56.15,0,0,1,446,206.44c-.26-.93-.52-1.86-.79-2.79-.46-1.61-.94-3.28-1.35-4.93a2.88,2.88,0,0,1,.14-1.15h0c2.48,2.44,4.81,4.95,7.07,7.38,3.24,3.48,6.3,6.77,9.72,9.85,1.07,1,2.1,2,3.09,3.07a47.46,47.46,0,0,0,4.14,4,71.31,71.31,0,0,0,8.42,5.7c4.12,2.49,8.74,1.17,11.49-3.29l.43-.68a13.68,13.68,0,0,0,2.24-4.87,1.26,1.26,0,0,1,.71.48l.17.18q2.24,2.17,4.48,4.34c3.55,3.42,7.22,6.95,10.63,10.6,1.14,1.22,2.3,2.43,3.46,3.63a121.77,121.77,0,0,1,8.76,9.76c.6.77,1.29,1.49,1.95,2.19A23.62,23.62,0,0,1,523,252.4c2.4,3.37,4.92,7,7.08,10.72a27.3,27.3,0,0,0,1.87,2.73c.51.68,1,1.38,1.5,2.1,3.6,5.69,5.23,11.93,6.35,17.29a79.51,79.51,0,0,1,1.24,13l0,.66c0,.72.06,1.45.08,2.18.06,1.67.11,3.4.23,5.1a7,7,0,0,0,.56,2.54c1.49,3.27,2.68,6.72,3.82,10.05.49,1.42,1,2.84,1.49,4.26a45.49,45.49,0,0,0,2.7,5.68c.59,1.1,1.2,2.24,1.73,3.37a66.73,66.73,0,0,0,6.58,11.54c1.52,2,2.89,4.23,4.22,6.35a77.34,77.34,0,0,0,5.54,8.05c1,1.23,2,2.59,2.87,3.91.71,1,1.45,2.09,2.22,3.1l1.19,1.57a55.18,55.18,0,0,0,4.5,5.5,80.66,80.66,0,0,1,6.76,8.25,69.56,69.56,0,0,0,6.65,7.67c2,2,4,4.14,5.85,6.2,3,3.26,6.09,6.62,9.44,9.65a4.2,4.2,0,0,1,1.27,5.33,23.11,23.11,0,0,0-1.35,5.06c-.11.59-.23,1.19-.35,1.78-1.67,7.68-3.52,15.12-7.68,21.72-1,1.51-1.89,3-2.83,4.56a148.14,148.14,0,0,1-11.09,16.3l-.41.5a49.34,49.34,0,0,1-7.13,7.56,93.55,93.55,0,0,0-7.27,6.78l-1.41,1.42a49,49,0,0,1-5.58,4.65c-4.46,3.25-9.28,6.67-14.74,10.46a17.93,17.93,0,0,1-4.15,2.26,17.06,17.06,0,0,0-4.23,2.39l-.65.46a40,40,0,0,1-5.09,2.82l-1,.48c-1.9.95-3.78,2-5.61,3-2.88,1.58-5.86,3.21-8.93,4.52-1.87.8-3,.61-4.44-.74-4.57-4.35-9.49-8.44-14.25-12.4-1.86-1.55-3.72-3.1-5.56-4.66l-3.26-2.75c-3-2.54-6.17-5.18-9.13-7.91a49.43,49.43,0,0,0-4.53-3.55c-1.34-1-2.72-2-4-3.06-1.76-1.53-3.6-3-5.37-4.46-2.29-1.85-4.66-3.77-6.87-5.81a83.79,83.79,0,0,0-9.88-7.67,48.46,48.46,0,0,1-6.64-5.48l-.45-.43a32.16,32.16,0,0,0-6.65-5.33c-1.39-.76-2.76-1.64-4.08-2.48a48.94,48.94,0,0,0-6.53-3.7,3.09,3.09,0,0,1-1.55-1.34C426.6,432.74,427.08,431.29,427.56,429.83ZM477.68,206.5c1.57,1.19,3.2,2.42,4.72,3.71.55.47,1,.87,1.47,1.22,2.88,2.35,2.88,2.35-.18,6.54-.66.91-1.26,1.83-1.9,2.81-.24.39-.5.78-.76,1.18a3.94,3.94,0,0,1-3.31-1.33,6.51,6.51,0,0,0-1.92-1.32,9.83,9.83,0,0,1-1.32-.8c-2.34-1.86-4.55-4-6.69-6-.91-.86-1.82-1.72-2.74-2.57-3.2-2.95-6.19-6.21-9.08-9.37-2.57-2.81-5.24-5.72-8.05-8.41a19,19,0,0,1-2.84-3.78c-.69-1.12-.15-2.23.41-3.4l.2-.41a1.49,1.49,0,0,1,1.48-.89,4.21,4.21,0,0,1,1,.13c4.7,1.15,8.48,2.59,11.67,5.87,1,1,2,2.1,3,3.15,2.78,2.92,5.66,5.94,8.71,8.72C473.52,203.33,475.63,204.94,477.68,206.5Zm-284.3-39.75c-3.41,1.16-6.95,2.36-10.44,3.63-.88-3.25-1.85-6.51-2.79-9.66-1.39-4.65-2.83-9.46-4-14.36a33.46,33.46,0,0,0,6.45-1.63,38,38,0,0,1,4.95-1.36,27.26,27.26,0,0,0,6.24-2.25l.7-.31a36.14,36.14,0,0,1,6.8-2.05l2.43-.58a3.47,3.47,0,0,1,1.05,0l.44,0c.86,2.7,1.62,5.48,2.36,8.17A126.63,126.63,0,0,0,211.87,160C205.8,162.54,199.49,164.68,193.38,166.75Z"
     id="path8" />
  <path
     class="cls-1"
     d="M163.12,78.63a43.94,43.94,0,0,1,1,7.79,61.4,61.4,0,0,0,1.2,10.34c.11.6.21,1.21.32,1.82,0,.19.07.38.11.57a3.3,3.3,0,0,1,0,2.2,3.65,3.65,0,0,0-.26,2.46l.06.51a43.79,43.79,0,0,0,1.58,7.38c.4,1.5.83,3,1.14,4.58a8,8,0,0,1-.13,3.85c-.85,3.11-1.44,6.33-2,9.44l0,.14a25.56,25.56,0,0,0-.31,3.46l0,.79a3.16,3.16,0,0,0,1.54,3.16l.22.14.23-.11c1.64-.69,3.25-1.43,4.87-2.16,2.15-1,4.37-2,6.59-2.89a68.58,68.58,0,0,1,7.46-2.37c1.6-.44,3.25-.89,4.85-1.42a27.71,27.71,0,0,1,7.29-1,46.06,46.06,0,0,0,5.18-.45l.4-.11,0-.39c.26-4,.18-4.19-2.62-6.37-.89-.69-2.1-1.63-3.7-3a55.25,55.25,0,0,0-6-4.48,7.32,7.32,0,0,1-3-3.62c-.57-1.5-1.15-3-1.73-4.49-.8-2.08-1.61-4.16-2.38-6.26-.06-.15-.1-.3-.15-.45a2.47,2.47,0,0,0-1.35-1.83c-1.22-.51-1.53-1.5-1.87-3a16.21,16.21,0,0,0-3.9-7.6,11.3,11.3,0,0,1-2.55-4.07l-.53-1.43c-.66-1.79-1.35-3.64-2.14-5.42a10.08,10.08,0,0,0-4-4.68,3.84,3.84,0,0,0-3.22-.61A3.8,3.8,0,0,0,163,71.42a7.68,7.68,0,0,0-.39,4.37C162.76,76.73,162.94,77.68,163.12,78.63ZM172,98.71l-1,.23a10.42,10.42,0,0,1-1.13-4.1,16.07,16.07,0,0,0-.68-3.25,10,10,0,0,1,3.65-1.39c.63-.15,1.28-.3,1.92-.51a15.09,15.09,0,0,1,2.89,7A18.39,18.39,0,0,1,172,98.71Zm1.94,21.81a4.11,4.11,0,0,0,.22-3c-.8-3.1-1.53-6.16-2.3-9.39l-.75-3.16a28.51,28.51,0,0,1,4.48-1.84,30.8,30.8,0,0,0,4.26-1.71,6.23,6.23,0,0,1,1.34,2.26c.08.2.16.4.25.6.17.41.37.81.57,1.21a14,14,0,0,1,1,2.55c.88,3.52,3.35,5.54,6.25,7.64a62,62,0,0,1,7,5.84,48.19,48.19,0,0,0-12.36,1.87,80.32,80.32,0,0,0-8.18,3.29c-1.23.55-2.5,1.11-3.82,1.67A30.57,30.57,0,0,1,173.9,120.52Z"
     id="path10" />
  <path
     class="cls-1"
     d="M497.15,83.43a5,5,0,0,0-2.59,3.2c-.09.21-.17.42-.26.62-.49,1.12-.91,2.28-1.31,3.41-.3.83-.6,1.66-.93,2.48-.05.15-.11.3-.16.46-.22.7-.35,1-.84,1-1.78.15-2.19,1.59-2.5,2.65l0,.16a41.61,41.61,0,0,1-2.19,5.45,35,35,0,0,0-2.49,6.52,1.17,1.17,0,0,1-.53.78,30.06,30.06,0,0,0-5.71,4.5,36.36,36.36,0,0,1-4.3,3.61,14.41,14.41,0,0,0-4.85,5.59l-.09.19.07.2a3.05,3.05,0,0,0,3.23,2.08,54.6,54.6,0,0,1,14.65,2.15,82.08,82.08,0,0,1,15.23,5.75c1.33.7,2.68,1.35,4.1,2l2,1,.39.19.24-.35c.91-1.32,1.38-2.35,1.1-3.68-.19-.95-.35-1.94-.49-2.89a26.74,26.74,0,0,0-1.51-6.36,20.37,20.37,0,0,1-.72-2.21,17.05,17.05,0,0,0-.94-2.74,5.52,5.52,0,0,1-.12-4.06c.25-.93.48-1.88.7-2.83.3-1.29.62-2.64,1-3.92a47.24,47.24,0,0,0,1.57-9c.18-1.69.36-3.43.66-5.13.06-.36.13-.73.2-1.1a10.54,10.54,0,0,0,.21-5,11.77,11.77,0,0,1,0-5.44l.25-1.69q.49-3.56,1-7.11a6,6,0,0,0-.31-3c-.57-1.64-1.34-2.61-2.39-3s-2.23,0-3.66.94A10.68,10.68,0,0,0,501,73.8c-.6,1.44-1.15,2.93-1.68,4.36-.39,1-.78,2.1-1.19,3.14a5.78,5.78,0,0,0-.24.77C497.72,82.79,497.57,83.25,497.15,83.43Zm4.11,28.64c-.13.31-.26.62-.38.94-.93,2.45-2,5.22-.26,8.33a20.75,20.75,0,0,1,1.55,4.14c.17.57.33,1.13.51,1.68a1.3,1.3,0,0,1,0,1,63.67,63.67,0,0,0-12.15-4.62l-.71-.22c-4.12-1.26-8.39-1.32-12.9-1.39h-.16l1.62-1.42c1.77-1.56,3.44-3,5.17-4.34a13.39,13.39,0,0,0,4.81-6.59c.77-2.24,1.71-4.43,2.71-6.75.38-.9.78-1.82,1.17-2.76a58.59,58.59,0,0,0,11.1,3.71c-.11.57-.21,1.14-.31,1.71a32.12,32.12,0,0,1-1.33,5.57C501.54,111.41,501.4,111.74,501.26,112.07Zm3.86-20.69c-.17,1.51-.35,3.07-.61,4.59l-.06.4a3.59,3.59,0,0,1-.63,1.83l-1-.22a23,23,0,0,1-7-2.33,26.43,26.43,0,0,0,1.11-3A14.3,14.3,0,0,1,499,88.07a3.13,3.13,0,0,1,2.07.27,7.92,7.92,0,0,0,1,.31,9.53,9.53,0,0,1,3.19,1.12Z"
     id="path12" />
  <path
     class="cls-1"
     d="M488.58,54.12c.88,1.06,1.76,2.13,2.63,3.22l.28.35.38-.25a24.05,24.05,0,0,0,5.88-4.8l.23-.29-.2-.31a114.56,114.56,0,0,0-7.67-9.9c-.92-1.1-1.84-2.2-2.75-3.32l-.28-.35-.38.25A36.77,36.77,0,0,0,481,43.39l-.29.29.22.34A115.4,115.4,0,0,0,488.58,54.12Z"
     id="path14" />
  <path
     class="cls-1"
     d="M139.62,72.67l3.22.32.4,0,.12-.38a14.83,14.83,0,0,0,.7-7.71l-.06-.35-.36-.06c-6-.92-11.39-1.51-16.54-1.8l-.47,0-.95,8,.44.09A123.49,123.49,0,0,0,139.62,72.67Z"
     id="path16" />
  <path
     class="cls-1"
     d="M485.63,70l.41.11.17-.38a26.47,26.47,0,0,0,2.5-7.31l.05-.34-.3-.17a76,76,0,0,0-7.66-3.73c-1.54-.67-3.13-1.37-4.65-2.13a1.79,1.79,0,0,0-1.41-.11,2.27,2.27,0,0,0-1.26,1.22c-.64,1.35-1.3,2.69-2,4l-.93,1.9.26.26C472.41,64.89,481.38,68.93,485.63,70Z"
     id="path18" />
  <path
     class="cls-1"
     d="M137.25,80.71c-.61.24-1.24.42-1.91.61-1.83.53-3.71,1.07-5.19,2.73l-.22.25.14.3a20.06,20.06,0,0,1,1.05,2.88A16.31,16.31,0,0,0,133,91.92l.22.34L148.76,86l-3.51-7.54H145a12.7,12.7,0,0,0-6,1.56C138.36,80.25,137.81,80.5,137.25,80.71Z"
     id="path20" />
  <path
     class="cls-1"
     d="M469.46,86.78a2.2,2.2,0,0,0,.39.82c.09.14.2.3.31.49l.17.31.35-.06a53.93,53.93,0,0,0,7.32-2.1c.76-.26,1.52-.52,2.28-.76,3.39-1.09,5.09-1.64,5.67-2.89s-.08-2.9-1.41-6.19a1.24,1.24,0,0,0-.56-.55,3.11,3.11,0,0,1-.3-.2l-.17-.12-.2,0a48,48,0,0,0-10.91,3.25c-1.21.47-2.43.94-3.67,1.38l-.4.14.37,2.13C469,84,469.19,85.37,469.46,86.78Z"
     id="path22" />
  <path
     class="cls-1"
     d="M143.56,105.9l5.91,3.84.26-.14a2.84,2.84,0,0,1,.32-.14,1.23,1.23,0,0,0,.62-.44A90.11,90.11,0,0,0,157.2,96.3a2.2,2.2,0,0,0-1.1-3c-1.08-.6-2.19-1.14-3.27-1.67L151.52,91l-.34-.17-.25.28c-2.75,3-6.72,10.82-7.31,14.45Z"
     id="path24" />
  <path
     class="cls-1"
     d="M530.06,67.44l.24.31.36-.15c1.68-.7,3.4-1.35,5.07-2a73.28,73.28,0,0,0,9.73-4.22l.22-.13,0-.25a5.18,5.18,0,0,0-.63-3.11c-.08-.19-.17-.37-.24-.55s-.17-.5-.25-.75A3.71,3.71,0,0,0,542.85,54l-.21-.12-.23.09c-1.67.72-3.43,1.37-5.13,2a59.21,59.21,0,0,0-9.87,4.37l-.35.2.41,1.26A17.57,17.57,0,0,0,530.06,67.44Z"
     id="path26" />
  <path
     class="cls-1"
     d="M545.36,75.23a4,4,0,0,0-2.77-1l-.29,0-4-.33L535,73.6c-1-.08-2.1-.17-3.16-.2a2.05,2.05,0,0,0-2.25,1.8c-.07.6-.2,1.19-.33,1.82a11.88,11.88,0,0,0-.35,4.4l.05.38.39,0c1.89.2,3.77.43,5.65.67,3.07.38,6.24.78,9.41,1l.43,0,.09-.42a24.77,24.77,0,0,0,.56-7.57l0-.18Z"
     id="path28" />
  <path
     class="cls-1"
     d="M182.53,56.82a14.07,14.07,0,0,0,3.65,2.36l.35.14.23-.3c1.05-1.39,2.16-2.76,3.23-4.09a84.23,84.23,0,0,0,6.64-9l.21-.35-.3-.27a35.33,35.33,0,0,0-5.49-4.36l-.37-.23-.28.34a146.56,146.56,0,0,0-10.3,13.4l-.29.43.45.27A20.84,20.84,0,0,1,182.53,56.82Z"
     id="path30" />
  <path
     class="cls-1"
     d="M191.86,62.79a3.85,3.85,0,0,0-2.32,2l-.07.16,0,.17a32.73,32.73,0,0,0,2.57,6.61l.22.42,14.77-6.44,0-.38a10.93,10.93,0,0,0-1.58-3.91c-.22-.39-.44-.77-.63-1.16-1.31-2.62-1.8-2.8-4.31-1.6-2.72,1.3-5.44,2.59-8.15,3.91Z"
     id="path32" />
  <path
     class="cls-1"
     d="M533.57,104.59l.34.16,4.72-5.55-.27-.32c-.69-.81-1.37-1.64-2-2.46a59.42,59.42,0,0,0-8.44-8.88l-.34-.28-.32.3a17.38,17.38,0,0,1-1.65,1.35c-1.33,1-2.59,2-3.08,3.66l-.06.22.12.19C525.54,97.73,530.89,103.38,533.57,104.59Z"
     id="path34" />
  <path
     class="cls-1"
     d="M194.36,77.74l-.17.22a9,9,0,0,0-1.42,3.19l-.21.69c-.77,2.45-.39,3.25,1.94,4.07C197.68,87,201,88,204.13,89l2,.62a2,2,0,0,0,.64.09l.48,0c.17,0,.35,0,.54,0h.38l.1-.36a36.36,36.36,0,0,0,1.21-6.4l0-.33-.28-.16a46.16,46.16,0,0,0-14.62-4.68Z"
     id="path36" />
  <path
     class="cls-1"
     d="M308.79,216.22c.61.57,1.21,1.2,1.78,1.8a17.12,17.12,0,0,0,5.5,4.38c1.25.53,2.49,1.14,3.69,1.72a37.89,37.89,0,0,0,7.89,3.15c3.07.73,5.47,1.22,7.79,1.6l.73.12a38,38,0,0,0,6.34.7,15.88,15.88,0,0,0,4.17-.52.86.86,0,0,0,.23,0,18.28,18.28,0,0,0,7.43-2.37,17.64,17.64,0,0,1,3.67-1.72,46.41,46.41,0,0,0,9.19-5l1.51-1c3.21-2,5.55-5.11,7.8-8.1l.64-.84q3.06-4,6.09-8.08l.62-.82c2-2.62,4-5.86,4.35-10a19,19,0,0,1,1.73-6.21c2.54-5.61,3.47-11.71,2.93-19.18.58-5.11-.21-10.64-1-16-.13-.88-.26-1.76-.38-2.65a36.61,36.61,0,0,0-2-8.2,153.85,153.85,0,0,0-7.19-15.29l-.58-1.12a12.81,12.81,0,0,0-4-5c-1-.68-2.07-1.42-3.07-2.13-3-2.15-6.11-4.37-9.87-5.42a12.09,12.09,0,0,1-1.71-.67c-.38-.17-.75-.34-1.14-.48-.6-.23-1.2-.49-1.8-.74a20.93,20.93,0,0,0-4.5-1.52l-.52-.1a65.85,65.85,0,0,0-12.33-1.37,47.5,47.5,0,0,0-11.72,2,35,35,0,0,0-5.39,2.14c-1.18.54-2.4,1.11-3.62,1.56a31.47,31.47,0,0,0-9,5.56l-1.68,1.35a47.2,47.2,0,0,0-7.63,7.08c-.52.66-1.06,1.3-1.6,2a52.86,52.86,0,0,0-4.31,5.7,43.89,43.89,0,0,0-2.86,5.69,46.9,46.9,0,0,1-2.55,5.18,13.38,13.38,0,0,0-1.52,4.36c-.13.64-.2,1.3-.28,1.94a10.57,10.57,0,0,1-.87,3.69c-1.69,3.25-1.87,6.72-2.05,10.08,0,.75-.08,1.5-.14,2.25-.76,10.08,2.31,19.38,5.06,26.36A66,66,0,0,0,308.79,216.22Zm-10.43-54.66a25.41,25.41,0,0,1,2.6-11.92,10.27,10.27,0,0,0,.64-1.72,40.36,40.36,0,0,1,6-12.93,8.29,8.29,0,0,0,1.12-2.27,10,10,0,0,1,2-3.37c4.26-4.93,9-10,15.06-13.65a35.86,35.86,0,0,1,5.62-2.61l1.21-.48a35.83,35.83,0,0,1,14.5-2.43c6.36.18,11.79,1.81,16.12,4.85.82.57,1.69,1.11,2.53,1.64,2.7,1.68,5.5,3.42,7,6.47l.14.17c4.57,3.67,7.05,9,9.24,13.7,1.06,2.28,2.27,4.88,2.19,7.68a5.14,5.14,0,0,0,.44,2c.06.17.12.33.17.5a62.52,62.52,0,0,1,2,7.28,15.65,15.65,0,0,1,.08,4c0,.79-.1,1.6-.08,2.41,0,2.11-.1,4.27-.25,6.35-.12,1.82-.25,3.7-.25,5.55a10,10,0,0,1-.77,3.37l-.05.14a12.4,12.4,0,0,0-.55,3.09,9.7,9.7,0,0,1-.7,3.32c-.74,1.59-1.37,3.24-2,4.84a49.29,49.29,0,0,1-3,6.87c-.46.81-1,1.59-1.54,2.35s-.88,1.26-1.29,1.92a73.82,73.82,0,0,1-15.45,18,26.28,26.28,0,0,1-10.79,5.68l-2.43.65c-2.84.78-5.52,1.52-7.92,1.27h-.07c-5.57.25-10.2-1.09-15.24-2.7a10.7,10.7,0,0,1-3-1.73l-.18-.13c-4.54-3.34-9.64-7.61-13.08-13.92a77.46,77.46,0,0,1-5.34-11.25l-.46-1.33a63.05,63.05,0,0,0-3.34-8.36,5.52,5.52,0,0,1-.58-2.14c-.09-1.64-.27-3.3-.45-4.91a39.75,39.75,0,0,1-.27-9.87A35.92,35.92,0,0,0,298.36,161.56Z"
     id="path38" />
  <path
     class="cls-1"
     d="M320.21,186.47a9.78,9.78,0,0,0-4.08,1.14l-.27.17,0,.31c.55,5.93,3.29,11.07,8.62,16.18a15.71,15.71,0,0,0,11.21,4.79l.81,0a74.57,74.57,0,0,0,9-.9c4.1-.69,7-1.87,9.19-3.71,5.72-4.84,9.23-10.16,10.74-16.26a3.92,3.92,0,0,0-.52-3.43,3.69,3.69,0,0,0-3.1-1.28h0c-1.54,0-3.08.06-4.62.11l-.64,0c-1.19,0-2.39.09-3.58.15-2.63.12-5.35.24-8,.19l-.58,0a39.69,39.69,0,0,0-5.65.17l-4.6.59q-6.69.86-13.37,1.73Zm6.66,12.07c-.3-.35-.62-.68-.94-1a11.56,11.56,0,0,1-2.75-3.87c1.24-1.05,2.88-1.17,4.46-1.29l.74-.07c2.18-.2,4.43-.49,6.89-.89A81.22,81.22,0,0,1,351.75,190a30.22,30.22,0,0,0,4.58-.31l1.59-.18a21.37,21.37,0,0,1-2.9,6.41,10.36,10.36,0,0,1-3.95,3.46c-5,2.41-9,3.41-13.08,3.23-.16,0-.31,0-.47,0a5.63,5.63,0,0,0-1.36,0C332.65,203.11,329.79,201.87,326.87,198.54Z"
     id="path40" />
  <path
     class="cls-1"
     d="M320.66,168.35l.58,0a6.54,6.54,0,0,0,6.54-5c1.07-3.66-.4-6.73-2-9.24a5.71,5.71,0,0,0-4.2-3,5.14,5.14,0,0,0-4.23,2.13,14.08,14.08,0,0,0-3.31,7.44A7.26,7.26,0,0,0,316,166.4,6.27,6.27,0,0,0,320.66,168.35Z"
     id="path42" />
  <path
     class="cls-1"
     d="M360.05,166.1a5.2,5.2,0,0,0,3.19,1.09,5.87,5.87,0,0,0,1.53-.21,8.51,8.51,0,0,0,6.17-6.11,8.1,8.1,0,0,0-1.84-7.7c-.33-.32-.64-.66-1-1a19.78,19.78,0,0,0-1.51-1.53c-1.64-1.46-3-1.53-4.7-.26a7.11,7.11,0,0,0-2,2.24,22.11,22.11,0,0,0-2.29,8.14v0A6.51,6.51,0,0,0,360.05,166.1Z"
     id="path44" />
</svg>
