<?xml version="1.0" encoding="utf-8"?>
<!-- Generator: Adobe Illustrator 16.0.4, SVG Export Plug-In . SVG Version: 6.00 Build 0)  -->
<!DOCTYPE svg PUBLIC "-//W3C//DTD SVG 1.1//EN" "http://www.w3.org/Graphics/SVG/1.1/DTD/svg11.dtd">
<svg version="1.1" id="Layer_1" xmlns="http://www.w3.org/2000/svg" xmlns:xlink="http://www.w3.org/1999/xlink" x="0px" y="0px"
	 width="154.38px" height="154.38px" viewBox="0 0 154.38 154.38" enable-background="new 0 0 154.38 154.38" xml:space="preserve">
<g>
	<path id="circle9_2_" fill="#FFFFFF" d="M77.189,0c14.212,0,25.73,11.515,25.73,25.732c0,14.204-11.519,25.729-25.73,25.729
		S51.46,39.937,51.46,25.732C51.46,11.515,62.977,0,77.189,0z"/>
	<path id="path11_2_" fill="#FFFFFF" d="M129.139,20.094L114.55,34.681c11.796,10.375,19.252,25.576,19.252,42.508
		c0,31.264-25.353,56.604-56.614,56.604c-31.262,0-56.601-25.341-56.601-56.604c0-16.929,7.437-32.133,19.229-42.508L25.251,20.094
		C9.731,34.215,0,54.566,0,77.19c0,42.639,34.561,77.189,77.189,77.189c42.641,0,77.191-34.552,77.191-77.189
		C154.38,54.567,144.644,34.215,129.139,20.094z"/>
	<g id="g13_2_">
		<path id="path15_2_" fill="#FFFFFF" d="M107.255,41.979L82.333,66.898v56.306c23.155-2.559,41.176-22.177,41.176-46.024
			C123.509,63.09,117.191,50.472,107.255,41.979z"/>
		<path id="path17_2_" fill="#FFFFFF" d="M72.041,66.898L47.113,41.979c-9.929,8.493-16.241,21.111-16.241,35.202
			c0,23.847,18.011,43.475,41.169,46.024V66.898L72.041,66.898z"/>
	</g>
</g>
</svg>
