<svg id="Layer_1" data-name="Layer 1" xmlns="http://www.w3.org/2000/svg" viewBox="0 0 681.61 533.78"><path d="M420.46,336.68l-4,25.3-11.67,20.88H439l10.62-24.41-7.26-25.67Zm12.8,37.41H419.74l5.13-9.19,3.28-20.68,7.94-1.41,4.24,15Z"/><path d="M540,205.45l-.12-.49c-.29-1.2-7.37-29.82-31.14-61.85-17.83-24-48.17-53.62-96.59-70.86a207.8,207.8,0,0,0-35.61-9.58l-.63-.12-2.67-.5,0,.07A210.39,210.39,0,0,0,340,59.49c-84.93,0-158.24,50.71-191.26,123.43l-.17-.09-1.85,4.56c-.09.23-.41,1-.9,2.31a208.77,208.77,0,0,0-15.73,79.71q0,3.34.11,6.67c.08,5.09.37,10.23.91,15.38l1,9.56.3-.32q1.31,8.66,3.3,17.06l-.16.09,1,3.41c0,.07.09.3.2.65a210.06,210.06,0,0,0,59,99.81,160.46,160.46,0,0,0,26.69,21.59l2.51,1.59,0,0a210,210,0,0,0,32.69,17.6l-.39.17,10,3.72c.2.07,1.25.46,3.07,1.05a209.85,209.85,0,0,0,147.9-3.23,187.67,187.67,0,0,0,31.13-15.57l5.37-3.35-.12-.09A209.83,209.83,0,0,0,540,205.45ZM426.56,181.76l29.21-5.39,9.37,10.54-23.87,18.27-5,14.36-21.53,8.32-15.36-38.29H383.67V159.15l-23.41-4.56-4.4-20.28L335,129.79l-13.37,8.6-21.91-8.77L276,142.49,261.71,159.1,236.86,147l3.93-19.68h20.39l9.65-20.1,12.44,8,43.48-10.63L338.4,84h29.22l9.31-12.33a229.54,229.54,0,0,1,29.58,7.89A202.08,202.08,0,0,1,531,206.21l-9.89,37-11.17-7.65-3.11-57.41-33.8-39-27.57,8.26L416.39,131.9l-9.11,20.67ZM399.63,320.43l-1.82,13.89L382,345.79c-1.3.94-1.49,1.08-15.38,34.78l-28.31,1.58L326,345.39,331.44,322l-9.16-19.09,5.31-13.12-13.52-17.58-37,6.9-24.16-29.24,5.68-7.73-2.9-15.51,22.19-40,7.49,6.26,31.95-5.65,3.13,9.5,12.86,6L349,192.12l25.88,5.41v.82h1L388,245.18l21,18.25,10.69-5.31-.46,15.48-27.55,30.22ZM168.11,249.68l-28.9,30.93c-.07-1.35-.13-2.71-.17-4.07-.61-35.65,9.9-69.23,14.13-81.21l10.6,5.79-8.6,25.79ZM232.05,429l-7.22,5.17a202.82,202.82,0,0,1-23.08-18.86c-34.45-34.38-51.44-80.41-55.67-93.12l15.15-8.07,8.68,26.75,20.82,10.49,4.71,31.9,34.39-3.63,16.58,22.8-19.88,9.11Zm183.21,26.91c-32.8,12.82-64.87,14.4-88.23,12.92a239.21,239.21,0,0,1-45.75-7.39l14.85-6.7,33.38,6,34-11.47h34.72L428,435.82l11.13,8.54A199.43,199.43,0,0,1,415.26,455.93Zm32-16.42-18-13.85L396.33,440.5H362.06l-33.22,11.21L295,445.64l-26.26,11.84a200.66,200.66,0,0,1-36.1-18.08l9.7-6.94-5.1-16.15L259.82,406,234,370.39l-31.06,3.28-4.14-28.08L177.13,334.7l-10.78-33.23-22.58,12a198.44,198.44,0,0,1-3.55-21.1L178.93,251l-14.19-25,9.68-29-17.92-9.79C188,117.14,258.42,68.27,340,68.27a202,202,0,0,1,27.1,1.83l-3.88,5.14h-30L321,97l-36.12,8.83L267.23,94.46l-11.57,24.12H233.6L226.92,152,264,170l17.59-20.53,18.71-10.13,22.3,8.92,14.11-9.08,11.8,2.55,4.43,20.41,22,4.28v22.18l-27.73-5.8-14.63,9.94-4.91-2.29-4.33-13.12-35.4,6.27-12.5-10.46L246.5,225.15,249.28,240l-7.48,10.17,31.81,38.51,36.78-6.86,7.18,9.33-4.88,12.05,9.5,19.8-5.31,22.8,15.27,45.47L372.66,389l1-2.55c4.78-11.59,12.46-30.08,14.35-34.22l16.44-11.94L406,339.2,408.67,319l-6.51-13.62,25.76-28.26,1-33.36L410.35,253l-14.54-12.63-10.86-42h8.47l16.38,40.82,33.4-12.9,5.49-15.71L478,188.14l-18.93-21.3-28.37,5.23-13.44-20.34,3.36-7.63,23.9,12.77,25.6-7.66,28.12,32.4,3.18,58.73,25,17.11,9.29-34.78a201.06,201.06,0,0,1-88.42,216.84Z"/><rect x="178.43" y="80.6" width="9.75" height="25.96" transform="translate(-7.68 170.29) rotate(-48.93)"/><rect x="204.36" y="61.24" width="9.75" height="25.72" transform="translate(-2.05 142.14) rotate(-37.35)"/><rect x="233.02" y="45.04" width="9.75" height="24.87" transform="translate(1.84 122.07) rotate(-28.89)"/><rect x="270.78" y="33.99" width="9.75" height="24.1" transform="translate(-0.41 89.54) rotate(-18.44)"/><rect x="308.53" y="26.45" width="9.75" height="23.21" transform="translate(-1.87 54.48) rotate(-9.9)"/><rect x="341.56" y="23.34" width="9.75" height="22.71" transform="translate(-1.26 16.64) rotate(-2.75)"/><rect x="374.67" y="34.63" width="23.48" height="9.75" transform="translate(260.04 406.8) rotate(-76.85)"/><rect x="413.72" y="44.52" width="21.46" height="9.75" transform="translate(214.22 421.43) rotate(-67.17)"/><rect x="447.68" y="58.01" width="26.15" height="9.75" transform="translate(170.23 425.99) rotate(-59.11)"/><rect x="480.18" y="78.15" width="23.95" height="9.75" transform="translate(102.1 394.43) rotate(-48.18)"/><rect x="503.73" y="102.86" width="24.03" height="9.75" transform="translate(44.04 342.46) rotate(-38.25)"/><rect x="523.63" y="129.72" width="21.97" height="9.75" transform="translate(6.48 292.74) rotate(-30.8)"/><rect x="541.07" y="157.96" width="23.04" height="9.75" transform="translate(-21.11 215.16) rotate(-21.63)"/><rect x="552.46" y="189.97" width="21.12" height="9.75" transform="translate(-23.36 89.41) rotate(-8.9)"/><rect x="559.3" y="224.27" width="24.68" height="9.75"/><rect x="563.02" y="258.48" width="22.41" height="9.75"/><rect x="570.25" y="285.41" width="9.75" height="24.29" transform="translate(235.45 848.86) rotate(-85.72)"/><rect x="565.67" y="315.2" width="9.75" height="23.88" transform="translate(71.44 755.43) rotate(-70.46)"/><rect x="557.35" y="346.94" width="9.75" height="26.82" transform="translate(-11.25 702.51) rotate(-63.48)"/><rect x="544.62" y="374.75" width="9.75" height="28.91" transform="translate(-98.41 572.61) rotate(-51.11)"/><rect x="522.85" y="403.77" width="9.75" height="28.58" transform="translate(-132.59 549.4) rotate(-49.64)"/><rect x="497.8" y="428.72" width="9.75" height="25.53" transform="translate(-158.83 341.49) rotate(-32.7)"/><rect x="471.67" y="450" width="9.75" height="25.93" transform="translate(-177.51 346.14) rotate(-34.04)"/><rect x="435.88" y="471.97" width="9.75" height="24.59" transform="translate(-186.04 294.76) rotate(-30.87)"/><rect x="399.08" y="483.67" width="9.75" height="22.64" transform="translate(-137.4 155.69) rotate(-18.71)"/><rect x="360.79" y="489" width="9.75" height="21.44" transform="translate(-24.91 19.22) rotate(-2.91)"/><rect x="312.31" y="493.57" width="23.96" height="9.75" transform="translate(-179.03 815.12) rotate(-89.13)"/><rect x="274.04" y="490.11" width="22.12" height="9.75" transform="translate(-264.83 649.5) rotate(-75.75)"/><rect x="238.14" y="479.47" width="24.59" height="9.75" transform="translate(-294.19 457.94) rotate(-59.88)"/><rect x="197.22" y="461.63" width="30.57" height="9.75" transform="translate(-274.75 307.22) rotate(-47.41)"/><rect x="152.46" y="101.58" width="9.76" height="27.38" transform="translate(-25.48 183.25) rotate(-56.63)"/><rect x="128.69" y="131.51" width="9.75" height="27.59" transform="translate(-62.23 170.13) rotate(-54.64)"/><rect x="113.99" y="164.54" width="9.75" height="24.67" transform="translate(-92.32 205.48) rotate(-63.81)"/><rect x="105.1" y="202.73" width="9.76" height="26.34" transform="translate(-117.89 298.25) rotate(-82.88)"/><rect x="94.21" y="250.58" width="24.82" height="9.75" transform="translate(-39.7 20.47) rotate(-9.26)"/><rect x="98.97" y="289.31" width="21.65" height="9.75" transform="translate(-81.75 45.37) rotate(-17.12)"/><rect x="101.09" y="329.23" width="25.76" height="9.75" transform="translate(-91.07 46.75) rotate(-16.67)"/><rect x="115.55" y="364.24" width="22.97" height="9.75" transform="translate(-137.02 81.61) rotate(-23.57)"/><rect x="135.95" y="401.93" width="22.45" height="9.75" transform="translate(-204.34 154.63) rotate(-34.46)"/><rect x="158.34" y="436.61" width="29.58" height="9.75" transform="translate(-266.57 263.86) rotate(-46.59)"/></svg>